<?xml version="1.0" encoding="UTF-8"?>
<svg id="Layer_1" xmlns="http://www.w3.org/2000/svg" version="1.1" viewBox="0 0 695.21 837.66">
  <!-- Generator: Adobe Illustrator 30.2.1, SVG Export Plug-In . SVG Version: 2.1.1 Build 1)  -->
  <defs>
    <style>
      .st0 {
        fill: #1f3964;
      }

      .st1 {
        fill: #0e7187;
      }

      .st2 {
        fill: #fbb040;
      }
    </style>
  </defs>
  <g>
    <g>
      <path class="st2" d="M641.22,493.75l-1.8,2.72c-26.18,39.69-78.96,66.78-137.74,70.68-40.25,2.67-80.76-4.56-108.93-35.58-18.4-20.26-30.52-45.12-44.7-68.28,20.88-10.36,33.45-34.42,32.1-57.69-1.35-23.27-15.59-44.91-35.33-57.3-19.75-12.39-44.38-15.93-67.33-11.86,1.21,6.93,2.42,13.86,3.63,20.78,2.41-.24,4.83-.48,7.24-.72,0,61.4,0,122.81,0,184.21,7.36,0,14.73,0,22.09,0-.02-22.56-.04-45.12-.06-67.67,5.69-.58,11.39-1.17,17.08-1.75,14.44,19.66,24.31,42.39,38.93,61.92,21.96,29.35,53.45,48.31,90,53.12,9.49,1.25,19.49,1.88,29.72,1.88,5.62,0,11.34-.19,17.01-.57,30.34-2.01,60.2-9.84,86.34-22.62,28.78-14.08,52.18-33.94,67.68-57.43l1.92-2.91-17.84-10.92ZM310.43,451.31v-93.73c24.61,5.43,45.96,22.8,48.13,45.6,1.81,29.32-17.01,47.05-48.13,48.13Z"/>
      <path class="st2" d="M45.86,461.08c-6.88-59.72,34.38-120.88,94.46-126.67l2.17,20.99c-48.5,5.07-81.43,56.1-75.28,103.14,4.7,41.26,30.76,65.14,72.74,58.63l3.26,20.99c-55.37,7.6-90.48-23.16-97.35-77.09Z"/>
      <path class="st2" d="M230.8,451.67c-6.51.72-27.14.72-38.72.72l-22.44,81.07-20.63-5.43,20.99-77.08c-1.45,0-5.43-.36-8.32-.72l1.09-16.29c2.9.36,8.32.36,11.58.36l28.59-103.14,20.63.36,23.89,97.35c2.17,0,7.24-2.17,11.94-3.98l10.13,18.82c-4.7,2.53-11.22,4.34-17.37,5.43l25.33,103.51-20.99,4.7-25.7-105.68ZM226.1,432.49l-13.39-55.37-15.92,57.18c9.05,0,29.68-1.81,29.31-1.81Z"/>
      <path class="st2" d="M380.85,334.05l20.63-5.79,43.43,158.15,43.79-180.59,20.99,5.43-53.92,220.76h-20.63l-54.29-197.96Z"/>
      <path class="st2" d="M491.68,544.58l4.13-20.98c2.81.77,5.68,1.19,8.19,1.55l23.37-161.54c-2.81-.77-5.27-1.49-8.13-1.91l4.85-20.87c15.96,3.41,29.72,9.42,41.32,17.68,39.66,29.14,48.38,80.13,33.09,130.21-14.05,44.04-49.91,64.45-96.83,57.66-3.22-.47-6.45-.93-9.98-1.81ZM577.52,482.04c4.68-14.68,6.81-29.37,6.32-43.7-1.02-28.31-13.01-51.62-36.17-65.94l-22.23,153.66c31.48-2.76,45.9-24.08,52.08-44.03Z"/>
    </g>
    <g>
      <g>
        <path class="st2" d="M351.67,782.96l4.13-20.98c2.81.77,5.68,1.19,8.19,1.55l23.37-161.54c-2.81-.77-5.27-1.49-8.13-1.91l4.85-20.87c15.96,3.41,29.72,9.42,41.32,17.68,39.66,29.14,48.38,80.13,33.09,130.21-14.05,44.04-49.91,64.45-96.83,57.66-3.22-.47-6.45-.93-9.98-1.81ZM437.51,720.41c4.68-14.68,6.81-29.37,6.32-43.7-1.02-28.31-13.01-51.62-36.17-65.94l-22.23,153.66c31.48-2.76,45.9-24.08,52.08-44.03Z"/>
        <path class="st2" d="M105.18,598.12c17.31-4.55,36.19-4.48,53.11-1.24,11.42,2.19,22.91,5.47,33.77,9.64,4.52,1.74,9.11,3.58,13.37,5.9l5-9.19s5.02-9.2,5.02-9.2c.28-.51-21.19-9.1-22.41-9.52-31.01-10.75-64.67-14.25-96.7-5.97-11.92,3.08-24.17,10.1-33.75,17.74-17.07,13.61-30.13,34.64-25.49,57.18,2.31,12.83,9.09,22.7,20.07,30.03,15.48,10.46,42.34,14.58,54.51,24.56,8.37,6.73,9.64,15.8,9.5,22.99.01,23.97-27.49,38.22-50.03,32.25l-5.3,20.28c8.66,2.38,17.92,2.15,27.28.46,27.39-4.92,48.63-24.13,48.84-52.79.13-17.2-5.36-29.81-16.71-39.22-19.72-16.14-62.34-16.35-67.42-42.63-2.84-12.94,4.06-24.88,13.34-33.39,9.58-8.78,21.38-14.55,34.01-17.87Z"/>
        <polygon class="st2" points="136.52 644.97 172.1 644.97 172.1 795.85 193.93 795.85 193.93 644.97 229.51 644.97 229.51 623.14 136.52 623.14 136.52 644.97"/>
        <path class="st2" d="M330.19,600.92l.35,83.35c.35,42.97-6.34,82.77-32.4,82.77-27.82,0-34.87-41.56-35.93-77.14-.7-21.13-1.41-78.41-1.41-79.12h-20.78c0,3.17.71,58.34,1.06,79.82,1.41,47.55,13.39,97.56,56.71,97.56h.35c42.62,0,53.54-50.37,53.54-103.9l-.35-83.35h-21.13Z"/>
        <rect class="st2" x="478.84" y="614.74" width="20.78" height="181.04" transform="translate(-4.73 3.31) rotate(-.39)"/>
      </g>
      <path class="st2" d="M592.34,597.33c-44-2.23-74.34,42.67-75.88,92.72-1.82,49.03,16.86,95.75,61.52,98.02l.67.03c40.33,2.05,68.53-46.64,69.88-93.02,1.43-48.04-15.19-95.67-56.19-97.75ZM628.84,694.42c-1.43,34.68-20.17,74.83-49.53,74.01-31.03-.91-44.8-39.03-42.84-77.69,1.58-37.68,21.52-75.09,54.85-73.4,26.66,1.35,38.75,39.73,37.52,77.09Z"/>
    </g>
  </g>
  <g>
    <path class="st0" d="M383.54,110.43c2.94-3.09,6.65-12.69,3.77-15.16-2.19-1.89-17.68,1.19-18.38,6.41-.58,4.36,9.93,9.48,14.61,8.75h0Z"/>
    <path class="st1" d="M268.95,102.08c.49,1.13,1.11,2.22,1.87,3.24,3.97,5.36,10.51,7.12,16.75,8.33-15.24,35.73-25.44,85.31-10.91,122.55,4.04,10.35,13.28,24.83,25.28,26.03,6.02.6,8.42-7.32,9.34-12.08l3.4-17.49c3.01-15.53,5.53-31.84,14.76-45.42l77.16-24.3c-4.15-5.18-9.26-8.18-14.06-11.62,14.92-6.79,27.79-17.98,30.9-34.7,2.62-14.11-1.7-28.58-10.85-39.53-2.79-3.33-5.96-5.66-9.74-7.75,4.19-2.38,7.79-6.12,8.36-11.13.78-6.88-4.32-14.17-11-15.92-5.72-1.5-11.39.89-14.72,5.65-1.08,1.54-1.84,3.18-2.31,4.83-18.38-8.47-53.78-16.71-85.7,22.42-4.41-2.22-9.61-2.85-14.42-1.74-11.69,2.71-18.8,17.83-14.11,28.66h0ZM386.15,136.99c-3.59-2.51-5.97-5.9-8.72-9.53l11.47-1.5,3.71,10.07c-1.78.82-4.71,2.19-6.47.96ZM395.94,134.93l-4.49-10.05,7.12-6,2.94,12.68c-1.59,1.4-3.16,2.33-5.56,3.37h0ZM394.72,77.25c4.72-.19,8.65,3.1,9.27,7.47-.32-.45-.67-.88-1.1-1.26-2.48-2.22-5.94-2.41-7.72-.42-1.03,1.14-1.25,2.76-.8,4.34-2.42-1.12-3.81-4.01-3.36-6.75.31-1.86,1.78-3.3,3.71-3.37h0ZM361.41,102.84c1.85-6.01,6.41-11.4,12.4-13.66,9.34-3.52,22.28-.15,26.49,10.34,2.73,6.81.48,13.75-5.91,17.96-9.39,6.18-22.37,9.89-30.27-.05-3.2-4.03-4.35-9.25-2.7-14.59h0ZM332.41,103.88c.95-1.88,3.11-4.1,5.93-4.43,6.34-.75,11.64,3.82,12.1,10.5-1.71-1.44-3.33-2.85-5.37-3.72-2.77-1.18-6.06-.24-7.56,2.66-1.2,2.31-1.13,4.73-1.1,7.52-4.14-2.58-6.33-7.89-3.99-12.53Z"/>
    <path class="st0" d="M337.74,201.72c14.14,1.31,35.04-3.24,46.49-11.95-11.24.11-21.44,1.89-31.62,4.72-5.15,1.8-10.3,3.08-14.88,7.22h0Z"/>
    <path class="st1" d="M403.95,278.61c-8.04-7.17-30.03-23.68-37.19-8.26-5.72,12.32-.31,27.42,12.01,33.5,4.83,2.39,10.2,2.43,15.32,1.11,12.66-3.26,27.93-16.6,21.59-30.19l-11.73,3.85h0Z"/>
    <path class="st0" d="M449.83,243.63c1.78-19.02-2.17-37.92-10.99-54.76-4.33-8.27-11.64-17.77-20.61-20.78-5.92-1.98-11.65.06-15.51,4.71-5.48,6.6-7.71,17.05-8.05,25.73l-26.39,16.23c12.48,1,19.74-1.65,28.33,7.53,2.15,8.51,4.49,16.45,8.45,24.14,4.39,8.52,11.1,18.26,20.08,22.14,6.69,2.9,13.7.73,17.91-5.33,3.94-5.66,6.12-12.41,6.79-19.61h0ZM430.12,236.6c-2.22-2.37-3.87-5.3-4.38-9.6l3.64,3.82c.42.44,1.83.64,2.34.29,2.95-2.02.18-14.51.07-18.66,4.35,3.93,6.7,29.34-1.67,24.15h0ZM427.01,195.49c-3.22-2.31-7-2.05-9.89,1.16-.68-2.4.58-5.17,2.21-6.28,7.01-4.76,14.74,9.16,16.31,15.08-2.81-3.69-5.02-7.37-8.63-9.96ZM414.58,174.07c7.82-.1,17.18,10.97,20.12,15.71-5.67-4.64-15.42-15.42-23.52-10.18-5.24,3.39-6.63,8.11-8.77,12.57-.17-5.91,3.08-17.98,12.17-18.1h0ZM410.21,194.05c-1.46,14.24,2.06,28.04,9.89,39.5-4.24-3.97-7.08-8.36-9.82-13.27-4.4-8.46-4.23-17.74-.06-26.24h0ZM432.41,262.29c-13.99.6-23.38-25.17-25.82-33.62,5.64,8.56,12.5,21.15,21.52,26.54,12.38,7.41,13.44-24.72,12.68-24.38l.92-.41c.36,7.28,1.86,31.38-9.29,31.86h0Z"/>
    <path class="st0" d="M331.81,241.02c10.15,1.94,24.94.79,33.21-6.3-9.74-2.75-25.61-.89-33.21,6.3Z"/>
    <path class="st0" d="M289.73,285.15c15.32,4.55,32.73-1.12,44.63-10.01-14.31-2.53-33.48,1.39-44.63,10.01Z"/>
    <path class="st0" d="M266.29,221.09c-9.74-18.77-24.53-39.77-42.76-50.98-14.33-8.81-36.64-13.6-47.36,3.13-10.54,16.46-4.36,41.35,4.02,57.88,12.46,24.6,32.15,45,56.19,58.56,12.77,7.2,26.45,12.12,40.99,13.68-12.8-17.55-18.68-41.61-17.01-62.16.6-7.29,2.19-13.84,5.92-20.11h0ZM235.41,247.01c-.7,2.23-.65,4.06-.75,6.28-.3,6.94-.55,13.52-1.49,21-1.74-9.77-2.26-19.44-2.77-29.83-6.58-3.26-13.2-5.72-19.85-8.29,6.87.06,13.21,1.35,19.65,4.18l.11-25.4c-8.19-4.56-16.48-8.53-25.43-12.65l-1.11,38.45c-2.47-8.87-3.22-17.38-3.17-26.23l.08-14.14-13.37-5.85c4.76.4,8.86,1.4,13.64,2.41.95-8.36,1.31-16.24,3-24.37.94,8.57.69,16.75.86,25.54,9.26,2.79,17.49,6.92,25.8,12l1.1-12.7,2.31,15.03c6.02,4.92,11.91,9.75,16.68,16.37-4.94-4.06-10.17-8.04-16.19-11.33l.57,25.44c4.7,3.35,8.77,6.96,12.12,11.9l-11.77-7.82h0Z"/>
  </g>
</svg>