<?xml version="1.0" encoding="UTF-8"?>
<svg id="Layer_1" xmlns="http://www.w3.org/2000/svg" version="1.1" viewBox="0 0 750 750">
  <!-- Generator: Adobe Illustrator 30.2.1, SVG Export Plug-In . SVG Version: 2.1.1 Build 1)  -->
  <defs>
    <style>
      .st0 {
        fill: #fff;
      }
    </style>
  </defs>
  <rect x="28" y="28" width="694" height="694" rx="184" ry="184" fill="#1a1a1a"/>
  <g id="icon-artwork" transform="translate(60 60) scale(0.84)">

  <g>
    <path class="st0" d="M190.28,465.49l-5.64-36.73-2.68,31.04c-20.3-12.42-40.41-22.53-63.05-29.34-.4-21.48.19-41.45-2.1-62.4-4.14,19.87-5.02,39.13-7.33,59.56-11.67-2.47-21.7-4.91-33.33-5.89l32.68,14.29-.19,34.56c-.12,21.64,1.72,42.43,7.75,64.11l2.72-93.95c21.87,10.05,42.13,19.76,62.14,30.9l-.27,62.07c-15.73-6.92-31.22-10.07-48.01-10.22,16.26,6.29,32.42,12.3,48.51,20.27,1.22,25.39,2.5,49.04,6.76,72.9,2.3-18.28,2.9-34.35,3.64-51.31.24-5.44.13-9.9,1.83-15.35l28.76,19.1c-8.18-12.09-18.13-20.9-29.61-29.09l-1.39-62.16c14.7,8.04,27.49,17.75,39.56,27.68-11.66-16.2-26.06-27.99-40.76-40.02Z"/>
    <path class="st0" d="M440.51,230.8c-.06-6.81-.23-12.73,2.7-18.38,3.66-7.06,11.7-9.36,18.48-6.48,4.98,2.12,8.96,5.57,13.13,9.09-1.13-16.31-14.08-27.48-29.57-25.66-6.88.81-12.17,6.24-14.49,10.83-5.72,11.33-.38,24.31,9.74,30.61Z"/>
    <path class="st0" d="M582.2,159.85c-1.09-3.88-.54-7.82,1.96-10.62,4.36-4.86,12.8-4.4,18.87,1.03,1.06.95,1.92,2,2.68,3.09-1.52-10.68-11.13-18.71-22.66-18.25-4.7.19-8.32,3.69-9.06,8.24-1.1,6.69,2.3,13.76,8.21,16.51Z"/>
    <path class="st0" d="M575.05,251.53l10.99,24.55c5.89-2.55,9.7-4.81,13.6-8.24l-7.18-30.98-17.4,14.67Z"/>
    <path class="st0" d="M540.81,257.8c6.73,8.87,12.53,17.16,21.31,23.3,4.29,2.99,11.47-.34,15.81-2.35l-9.07-24.61-28.04,3.67Z"/>
    <path class="st0" d="M582.25,233.42c15.61-10.27,21.11-27.24,14.43-43.88-10.29-25.65-41.89-33.86-64.73-25.27-14.64,5.51-25.77,18.7-30.3,33.37-4.03,13.05-1.22,25.81,6.6,35.66,19.32,24.29,51.05,15.21,73.99.12ZM564.96,179.14c7.04,6.05-2.02,29.51-9.22,37.05-11.44,1.79-37.12-10.74-35.7-21.38,1.7-12.75,39.56-20.27,44.92-15.66Z"/>
    <path class="st0" d="M697.47,421.5c-4.96-12.76-11.71-24.87-20.72-35.76,5.55,7.18,10.32,14.85,14.14,22.13,2.35,4.48,4.53,9.03,6.59,13.63Z"/>
    <path class="st0" d="M692.06,599.07s0-.01,0-.01c0,0-.02.01-.03.02h.03Z"/>
    <path class="st0" d="M608.31,548.56c-9.68-18.79-15.39-38.21-20.65-59-20.99-22.44-38.71-15.96-69.22-18.41l64.49-39.66c.81-21.21,6.27-46.76,19.66-62.87,9.45-11.37,23.45-16.35,37.91-11.52,1.74.58,3.44,1.29,5.13,2.07-9.75-5.86-20.85-10.84-33.54-14.68l-188.58,59.38c-22.57,33.19-28.71,73.07-36.08,111.01l-8.3,42.75c-2.26,11.63-8.1,31-22.82,29.53-29.33-2.93-51.92-38.31-61.79-63.6-6.78-17.38-11.34-35.86-14.05-55-3.89,5.2-7.8,11.13-11.44,17.78.05.1.11.2.16.3-9.12,15.33-13.02,31.33-14.47,49.15-3.63,44.55,6.53,90.9,27.84,130.13,5.65,10.41,11.29,20.43,20.46,28.2,10.44,8.85,23.33,15.06,37,16.62,15.21,1.74,27.62-3.95,41.54-8.96,12.09-4.35,24.41-8.13,36.62-12.17,25.25-8.35,50.51-16.7,75.76-25.04,6.87-2.27,13.74-4.54,20.6-6.81-6.94-15.81-7.48-34.28.17-50.75,17.5-37.67,71.24,2.68,90.89,20.19l28.67-9.41c.05.11.09.23.14.34l37.43-12.37c-4.76,0-9.65-.99-14.47-3.08-21.94-9.49-38.34-33.28-49.07-54.11ZM326.47,643.18c27.25-21.05,74.1-30.64,109.07-24.46-29.08,21.73-71.63,35.57-109.07,24.46ZM429.31,535.34c18.56-17.57,57.35-22.11,81.16-15.4-20.2,17.34-56.34,20.14-81.16,15.4ZM443.8,439.28c11.18-10.12,23.77-13.26,36.36-17.66,24.86-6.92,49.79-11.27,77.27-11.53-28,21.28-79.05,32.38-113.62,29.19Z"/>
    <path class="st0" d="M669.56,524.54c-5.43-5.79-9.45-12.96-10.7-23.45l8.89,9.33c1.02,1.07,4.49,1.55,5.72.71,7.22-4.95.43-35.46.18-45.61,10.64,9.62,16.38,71.69-4.09,59.03Z"/>
    <path class="st0" d="M661.97,424.07c-7.87-5.65-17.1-5.01-24.17,2.84-1.66-5.88,1.41-12.63,5.41-15.35,17.13-11.63,36.03,22.39,39.85,36.85-6.86-9.01-12.28-18.01-21.09-24.34Z"/>
    <path class="st0" d="M631.58,371.71c19.12-.25,41.97,26.81,49.17,38.39-13.87-11.35-37.69-37.68-57.48-24.87-12.81,8.3-16.2,19.81-21.42,30.72-.42-14.45,7.52-43.95,29.73-44.24Z"/>
    <path class="st0" d="M620.9,420.55c-3.57,34.79,5.02,68.52,24.17,96.54-10.36-9.7-17.31-20.43-24.01-32.41-10.74-20.67-10.32-43.35-.15-64.13Z"/>
    <path class="st0" d="M675.17,587.32c-34.19,1.47-57.14-61.52-63.11-82.17,13.78,20.92,30.56,51.69,52.58,64.87,30.25,18.1,32.85-60.4,30.99-59.57l2.24-1c.88,17.8,4.54,76.7-22.7,77.87Z"/>
  </g>
  <path class="st0" d="M562.12,281.1c-8.78-6.13-14.58-14.42-21.31-23.3l28.04-3.67,9.07,24.61c-4.34,2.02-11.52,5.35-15.81,2.35Z"/>
  <path class="st0" d="M586.04,276.08l-10.99-24.55,17.4-14.67,7.18,30.98c-3.9,3.43-7.71,5.69-13.6,8.24Z"/>
  <path class="st0" d="M573.99,143.34c.75-4.55,4.36-8.06,9.06-8.24,11.53-.46,21.14,7.57,22.66,18.25-.77-1.09-1.63-2.14-2.68-3.09-6.06-5.43-14.51-5.89-18.87-1.03-2.5,2.79-3.05,6.74-1.96,10.62-5.91-2.75-9.31-9.81-8.21-16.51Z"/>
  <path class="st0" d="M430.77,200.19c2.32-4.59,7.61-10.02,14.49-10.83,15.49-1.82,28.43,9.35,29.57,25.66-4.18-3.52-8.15-6.97-13.13-9.09-6.78-2.88-14.82-.58-18.48,6.48-2.93,5.65-2.76,11.57-2.7,18.38-10.12-6.3-15.46-19.29-9.74-30.61Z"/>
  <path class="st0" d="M596.69,189.53c-10.29-25.65-41.89-33.86-64.73-25.27-14.64,5.51-25.77,18.7-30.3,33.37-4.03,13.05-1.22,25.81,6.6,35.66,19.32,24.29,51.05,15.21,73.99.12,15.61-10.27,21.11-27.24,14.43-43.88ZM555.74,216.19c-11.44,1.79-37.12-10.74-35.7-21.38,1.7-12.75,39.56-20.27,44.92-15.66,7.04,6.05-2.02,29.51-9.22,37.05Z"/>
  <path class="st0" d="M192.88,539.99c11.48,8.19,21.44,17,29.61,29.09l-28.76-19.1c-1.7,5.45-1.59,9.91-1.83,15.35-.74,16.96-1.34,33.03-3.64,51.31-4.26-23.86-5.54-47.51-6.76-72.9-16.09-7.97-32.25-13.97-48.51-20.27,16.79.15,32.28,3.3,48.01,10.22l.27-62.07c-20.02-11.15-40.27-20.85-62.14-30.9l-2.72,93.95c-6.03-21.68-7.87-42.47-7.75-64.11l.19-34.56-32.68-14.29c11.63.98,21.66,3.42,33.33,5.89,2.31-20.42,3.19-39.68,7.33-59.56,2.29,20.95,1.7,40.92,2.1,62.4,22.64,6.81,42.74,16.92,63.05,29.34l2.68-31.04,5.64,36.73c14.7,12.03,29.11,23.82,40.76,40.02-12.07-9.94-24.85-19.64-39.56-27.68l1.39,62.16Z"/>
  <g>
    <path class="st0" d="M588.13,48.51c2.75,0,5.55.35,8.36,1.09,16.3,4.28,28.78,22.11,26.87,38.92-1.39,12.24-10.19,21.39-20.43,27.2,9.24,5.11,17,10.81,23.8,18.95,22.38,26.76,32.94,62.13,26.53,96.6-7.6,40.88-39.06,68.2-75.52,84.81,11.72,8.42,24.23,15.74,34.37,28.41l-188.58,59.38c-22.57,33.19-28.71,73.07-36.08,111.01l-8.3,42.75c-2.18,11.21-7.68,29.6-21.26,29.6-.51,0-1.03-.03-1.56-.08-29.33-2.93-51.92-38.31-61.79-63.6-6.78-17.38-11.34-35.86-14.05-55-11.48-81.06,10.58-173.86,40.71-244.5-15.25-2.96-31.22-7.25-40.93-20.35-1.85-2.49-3.36-5.15-4.56-7.92-11.44-26.47,5.92-63.41,34.49-70.04,3.81-.88,7.72-1.32,11.64-1.32,8.15,0,16.32,1.89,23.6,5.56,45.32-55.56,93.5-72.04,134.75-72.03,29.74,0,55.88,8.58,74.7,17.25,1.14-4.01,3-8.03,5.64-11.79,6.51-9.3,16.67-14.9,27.63-14.9M588.13,38.95h0c-13.89,0-27.15,7.09-35.47,18.98-1.06,1.51-2.02,3.06-2.9,4.66-22.99-9.3-46.86-14.19-69.6-14.19-51.43,0-97.68,23.55-137.54,70.03-6.63-2.34-13.7-3.56-20.8-3.56-4.67,0-9.32.53-13.8,1.57-15.97,3.7-29.9,15.27-38.2,31.73-8.48,16.8-9.56,36.02-2.9,51.42,1.51,3.49,3.41,6.79,5.65,9.82,8.93,12.04,21.81,17.89,35.43,21.49-18.62,46.38-50.5,143.63-37,239,2.9,20.5,7.82,39.72,14.61,57.13,11.74,30.09,37.05,66.38,69.75,69.64.84.08,1.69.13,2.51.13,20.36,0,27.94-23.4,30.65-37.34l8.3-42.75c.61-3.15,1.22-6.32,1.82-9.5,6.28-32.93,12.77-66.95,30.97-95.23l185.35-58.36,13.32-4.19-8.73-10.9c-7.18-8.97-15.21-15.36-23.24-21.09,37.03-20.61,59.85-49.54,66.34-84.4,6.8-36.55-3.63-74.63-28.6-104.49-4.21-5.03-8.84-9.4-14.32-13.44,7.48-7.24,12.03-15.98,13.12-25.49,2.46-21.6-12.77-43.69-33.94-49.25-3.54-.93-7.17-1.4-10.78-1.4h0Z"/>
    <path class="st0" d="M538.28,591.44c23.05,0,53.56,23.48,67.32,35.75l28.67-9.41c.05.11.09.23.14.34,15.08,33.11-22.08,65.51-52.91,73.45-5.26,1.36-10.63,2.12-15.97,2.12-7.35,0-14.64-1.46-21.48-4.83-13.64-6.73-23.76-18.01-29.51-31.11-6.94-15.81-7.48-34.28.17-50.75,5.24-11.28,13.72-15.56,23.57-15.56M538.28,581.87h0c-14.68,0-25.83,7.29-32.24,21.1-8.49,18.28-8.58,39.64-.26,58.62,6.88,15.67,18.97,28.4,34.04,35.84,7.83,3.86,16.48,5.82,25.71,5.82,5.93,0,12.11-.82,18.36-2.43,20.19-5.2,47.06-21.58,58.38-45.25,6.58-13.77,6.9-28.04.93-41.27-.08-.2-.16-.38-.25-.57l-3.59-7.69-8.06,2.65-23.52,7.72c-13.5-11.41-44.01-34.54-69.49-34.54h0Z"/>
    <path class="st0" d="M101.48,342.43c21.89,0,45.15,8.49,63.22,19.6,44.46,27.34,80.53,78.5,104.34,124.3.05.1.11.2.16.3-9.12,15.33-13.02,31.33-14.47,49.15-4.09,50.23,10.3,109.03,41.56,151.91-1.17-.13-2.33-.28-3.5-.43-34.24-4.21-66.5-15.99-96.68-33.01-58.77-33.14-106.88-83-137.33-143.12-20.46-40.39-35.58-101.23-9.82-141.45,12.67-19.78,31.99-27.25,52.51-27.25M101.48,332.86c-26.36,0-47.3,10.95-60.57,31.66-13,20.29-17.66,46.19-13.86,76.99,2.96,23.98,11.2,50.24,23.2,73.94,31.33,61.84,80.14,112.72,141.16,147.13,32.89,18.54,66.61,30.04,100.21,34.17l1.05.13c.87.11,1.73.22,2.6.31l21.47,2.3-12.72-17.45c-28.64-39.27-43.87-95.02-39.76-145.5,1.5-18.36,5.55-32.25,13.16-45.03l2.72-4.57-2.45-4.72-.15-.28c-17.63-33.91-55.06-95.6-107.83-128.06-21.72-13.36-46.59-21.02-68.23-21.02h0Z"/>
  </g>
  <path class="st0" d="M672.68,610.27c-5.44,0-11.02-1.15-16.51-3.53-23.84-10.31-41.12-36.31-51.42-56.31-9.37-18.19-15.1-36.71-20.72-58.8-14.36-14.86-26.84-15.03-45.54-15.28-5.85-.08-12.48-.17-19.73-.75l-14.6-1.17,74.81-46c.79-14.17,4.43-43.68,20.65-63.18,5.98-7.2,13.57-12.06,21.93-14.06h0c6.95-1.66,14.08-1.3,21.18,1.07,27.67,9.24,46.34,40.21,53.09,53.09,22.28,42.54,31.75,89.74,27.38,136.5-1.8,19.29-7.67,36.18-17.43,50.21-8.24,11.84-20.28,18.21-33.08,18.21ZM534.93,466.74c1.24.02,2.47.04,3.68.05,19.96.27,35.73.48,53.23,19.19l.84.9.3,1.2c5.56,21.99,11.14,40.26,20.26,57.98,9.58,18.61,25.47,42.72,46.71,51.91,14.02,6.07,28.92,1.61,37.94-11.37,8.81-12.66,14.12-28.01,15.76-45.64,4.19-44.92-4.91-90.28-26.34-131.17-12.93-24.69-30.75-42.81-47.65-48.46-5.37-1.8-10.73-2.08-15.92-.84h0c-6.34,1.52-12.15,5.28-16.8,10.88-15.39,18.51-18.11,48.13-18.56,60l-.1,2.55-53.38,32.82ZM583.62,431.18h.03-.03Z"/>

  </g>
</svg>
