<?xml version="1.0" encoding="UTF-8"?>
<svg id="Layer_1" xmlns="http://www.w3.org/2000/svg" version="1.1" viewBox="0 0 695.21 565.35">
  <!-- Generator: Adobe Illustrator 30.2.1, SVG Export Plug-In . SVG Version: 2.1.1 Build 1)  -->
  <defs>
    <style>
      .st0 {
        fill: #fbb040;
      }
    </style>
  </defs>
  <g>
    <path class="st0" d="M641.22,225.59l-1.8,2.72c-26.18,39.69-78.96,66.78-137.74,70.68-40.25,2.67-80.76-4.56-108.93-35.58-18.4-20.26-30.52-45.12-44.7-68.28,20.88-10.36,33.45-34.42,32.1-57.69-1.35-23.27-15.59-44.91-35.33-57.3-19.75-12.39-44.38-15.93-67.33-11.86,1.21,6.93,2.42,13.86,3.63,20.78,2.41-.24,4.83-.48,7.24-.72,0,61.4,0,122.81,0,184.21,7.36,0,14.73,0,22.09,0-.02-22.56-.04-45.12-.06-67.67,5.69-.58,11.39-1.17,17.08-1.75,14.44,19.66,24.31,42.39,38.93,61.92,21.96,29.35,53.45,48.31,90,53.12,9.49,1.25,19.49,1.88,29.72,1.88,5.62,0,11.34-.19,17.01-.57,30.34-2.01,60.2-9.84,86.34-22.62,28.78-14.08,52.18-33.94,67.68-57.43l1.92-2.91-17.84-10.92ZM310.43,183.15v-93.73c24.61,5.43,45.96,22.8,48.13,45.6,1.81,29.32-17.01,47.05-48.13,48.13Z"/>
    <path class="st0" d="M45.86,192.92c-6.88-59.72,34.38-120.88,94.46-126.67l2.17,20.99c-48.5,5.07-81.43,56.1-75.28,103.14,4.7,41.26,30.76,65.14,72.74,58.63l3.26,20.99c-55.37,7.6-90.48-23.16-97.35-77.09Z"/>
    <path class="st0" d="M230.8,183.51c-6.51.72-27.14.72-38.72.72l-22.44,81.07-20.63-5.43,20.99-77.08c-1.45,0-5.43-.36-8.32-.72l1.09-16.29c2.9.36,8.32.36,11.58.36l28.59-103.14,20.63.36,23.89,97.35c2.17,0,7.24-2.17,11.94-3.98l10.13,18.82c-4.7,2.53-11.22,4.34-17.37,5.43l25.33,103.51-20.99,4.7-25.7-105.68ZM226.1,164.33l-13.39-55.37-15.92,57.18c9.05,0,29.68-1.81,29.31-1.81Z"/>
    <path class="st0" d="M380.85,65.89l20.63-5.79,43.43,158.15,43.79-180.59,20.99,5.43-53.92,220.76h-20.63l-54.29-197.96Z"/>
    <path class="st0" d="M491.68,276.42l4.13-20.98c2.81.77,5.68,1.19,8.19,1.55l23.37-161.54c-2.81-.77-5.27-1.49-8.13-1.91l4.85-20.87c15.96,3.41,29.72,9.42,41.32,17.68,39.66,29.14,48.38,80.13,33.09,130.21-14.05,44.04-49.91,64.45-96.83,57.66-3.22-.47-6.45-.93-9.98-1.81ZM577.52,213.88c4.68-14.68,6.81-29.37,6.32-43.7-1.02-28.31-13.01-51.62-36.17-65.94l-22.23,153.66c31.48-2.76,45.9-24.08,52.08-44.03Z"/>
  </g>
  <g>
    <g>
      <path class="st0" d="M351.67,514.8l4.13-20.98c2.81.77,5.68,1.19,8.19,1.55l23.37-161.54c-2.81-.77-5.27-1.49-8.13-1.91l4.85-20.87c15.96,3.41,29.72,9.42,41.32,17.68,39.66,29.14,48.38,80.13,33.09,130.21-14.05,44.04-49.91,64.45-96.83,57.66-3.22-.47-6.45-.93-9.98-1.81ZM437.51,452.25c4.68-14.68,6.81-29.37,6.32-43.7-1.02-28.31-13.01-51.62-36.17-65.94l-22.23,153.66c31.48-2.76,45.9-24.08,52.08-44.03Z"/>
      <path class="st0" d="M105.18,329.96c17.31-4.55,36.19-4.48,53.11-1.24,11.42,2.19,22.91,5.47,33.77,9.64,4.52,1.74,9.11,3.58,13.37,5.9l5-9.19s5.02-9.2,5.02-9.2c.28-.51-21.19-9.1-22.41-9.52-31.01-10.75-64.67-14.25-96.7-5.97-11.92,3.08-24.17,10.1-33.75,17.74-17.07,13.61-30.13,34.64-25.49,57.18,2.31,12.83,9.09,22.7,20.07,30.03,15.48,10.46,42.34,14.58,54.51,24.56,8.37,6.73,9.64,15.8,9.5,22.99.01,23.97-27.49,38.22-50.03,32.25l-5.3,20.28c8.66,2.38,17.92,2.15,27.28.46,27.39-4.92,48.63-24.13,48.84-52.79.13-17.2-5.36-29.81-16.71-39.22-19.72-16.14-62.34-16.35-67.42-42.63-2.84-12.94,4.06-24.88,13.34-33.39,9.58-8.78,21.38-14.55,34.01-17.87Z"/>
      <polygon class="st0" points="136.52 376.81 172.1 376.81 172.1 527.69 193.93 527.69 193.93 376.81 229.51 376.81 229.51 354.98 136.52 354.98 136.52 376.81"/>
      <path class="st0" d="M330.19,332.76l.35,83.35c.35,42.97-6.34,82.77-32.4,82.77-27.82,0-34.87-41.56-35.93-77.14-.7-21.13-1.41-78.41-1.41-79.12h-20.78c0,3.17.71,58.34,1.06,79.82,1.41,47.55,13.39,97.56,56.71,97.56h.35c42.62,0,53.54-50.37,53.54-103.9l-.35-83.35h-21.13Z"/>
      <rect class="st0" x="478.84" y="346.58" width="20.78" height="181.04" transform="translate(-2.93 3.3) rotate(-.39)"/>
    </g>
    <path class="st0" d="M592.34,329.17c-44-2.23-74.34,42.67-75.88,92.72-1.82,49.03,16.86,95.75,61.52,98.02l.67.03c40.33,2.05,68.53-46.64,69.88-93.02,1.43-48.04-15.19-95.67-56.19-97.75ZM628.84,426.26c-1.43,34.68-20.17,74.83-49.53,74.01-31.03-.91-44.8-39.03-42.84-77.69,1.58-37.68,21.52-75.09,54.85-73.4,26.66,1.35,38.75,39.73,37.52,77.09Z"/>
  </g>
</svg>