<?xml version="1.0" encoding="UTF-8"?>
<svg id="Layer_1" xmlns="http://www.w3.org/2000/svg" version="1.1" viewBox="0 0 1600 300" width="1600" height="300">
  <!-- Generator: Adobe Illustrator 30.2.1, SVG Export Plug-In . SVG Version: 2.1.1 Build 1)  -->
  <defs>
    <style>
      .st0 {
        fill: #fbb040;
      }
    </style>
  </defs>
  <rect x="0" y="0" width="1600" height="300" fill="#1a1a1a" />
  <g transform="translate(417,27) scale(0.62)">
  <path class="st0" d="M607.47,241.99l-1.69,2.55c-24.56,37.23-74.07,62.64-129.21,66.3-37.75,2.51-75.76-4.27-102.19-33.37-17.26-19-28.64-42.32-41.94-64.05,19.59-9.72,31.38-32.29,30.11-54.13-1.27-21.83-14.62-42.13-33.15-53.76-18.53-11.63-41.62-14.94-63.16-11.12l3.4,19.5c2.27-.22,4.53-.45,6.79-.68v172.8h20.72c-.02-21.17-.04-42.32-.05-63.48,5.34-.55,10.69-1.1,16.03-1.65,13.55,18.44,22.81,39.77,36.52,58.08,20.61,27.53,50.14,45.32,84.43,49.83,8.9,1.17,18.28,1.76,27.88,1.76,5.28,0,10.64-.18,15.95-.53,28.47-1.89,56.47-9.22,81-21.22,27-13.2,48.95-31.83,63.48-53.87l1.8-2.73-16.73-10.24h0ZM297.16,202.18v-87.93c23.09,5.1,43.12,21.39,45.16,42.77,1.7,27.5-15.95,44.13-45.16,45.16Z"/>
  <path class="st0" d="M48.98,211.35c-6.45-56.01,32.25-113.39,88.61-118.82l2.04,19.69c-45.5,4.75-76.39,52.63-70.62,96.75,4.41,38.7,28.86,61.11,68.24,55l3.06,19.69c-51.94,7.13-84.87-21.72-91.33-72.32h0Z"/>
  <path class="st0" d="M222.46,202.52c-6.11.68-25.46.68-36.33.68l-21.05,76.05-19.35-5.1,19.69-72.32c-1.36,0-5.1-.34-7.81-.68l1.01-15.28c2.71.34,7.81.34,10.87.34l26.82-96.75,19.35.34,22.41,91.33c2.04,0,6.79-2.04,11.21-3.74l9.51,17.65c-4.41,2.37-10.52,4.07-16.29,5.1l23.76,97.1-19.69,4.41-24.11-99.14h0ZM218.05,184.53l-12.57-51.94-14.94,53.64c8.48,0,27.84-1.7,27.5-1.7h.01Z"/>
  <path class="st0" d="M363.22,92.19l19.35-5.43,40.74,148.36,41.09-169.4,19.69,5.1-50.58,207.09h-19.35l-50.93-185.71h0Z"/>
  <path class="st0" d="M467.19,289.68l3.87-19.68c2.64.73,5.33,1.12,7.68,1.46l21.92-151.53c-2.64-.73-4.94-1.4-7.63-1.79l4.55-19.58c14.97,3.2,27.88,8.83,38.76,16.59,37.21,27.34,45.38,75.17,31.04,122.15-13.18,41.32-46.82,60.46-90.84,54.09-3.03-.43-6.05-.88-9.36-1.7h0ZM547.71,231c4.39-13.77,6.38-27.55,5.93-40.99-.96-26.56-12.21-48.42-33.93-61.85l-20.85,144.15c29.53-2.58,43.06-22.59,48.85-41.3h0Z"/>
  <g>
    <path class="st0" d="M909.67,282.59l3.87-19.68c2.64.73,5.33,1.12,7.68,1.46l21.92-151.53c-2.64-.73-4.94-1.4-7.63-1.79l4.55-19.58c14.97,3.2,27.88,8.83,38.76,16.59,37.21,27.34,45.38,75.17,31.04,122.15-13.18,41.32-46.82,60.46-90.84,54.09-3.03-.43-6.05-.88-9.36-1.7h0ZM990.19,223.91c4.39-13.77,6.38-27.55,5.93-40.99-.96-26.56-12.21-48.42-33.93-61.85l-20.85,144.15c29.53-2.58,43.06-22.59,48.85-41.3h0Z"/>
    <path class="st0" d="M678.44,109.2c16.24-4.26,33.95-4.2,49.82-1.16,10.71,2.06,21.49,5.13,31.68,9.04,4.24,1.64,8.55,3.36,12.54,5.53l4.68-8.62,4.71-8.63c.26-.49-19.88-8.54-21.03-8.94-29.09-10.09-60.67-13.37-90.72-5.6-11.18,2.89-22.67,9.47-31.65,16.64-16.02,12.77-28.27,32.5-23.91,53.63,2.16,12.03,8.53,21.29,18.82,28.17,14.52,9.81,39.72,13.67,51.14,23.03,7.85,6.31,9.04,14.82,8.92,21.57.01,22.49-25.79,35.85-46.93,30.26l-4.97,19.02c8.12,2.24,16.81,2.02,25.6.43,25.69-4.62,45.61-22.63,45.82-49.53.12-16.13-5.02-27.97-15.68-36.79-18.5-15.14-58.48-15.34-63.25-40-2.66-12.13,3.81-23.34,12.51-31.31,8.99-8.24,20.06-13.65,31.9-16.77v.02Z"/>
    <polygon class="st0" points="707.84 153.15 741.21 153.15 741.21 294.68 761.69 294.68 761.69 153.15 795.06 153.15 795.06 132.67 707.84 132.67 707.84 153.15"/>
    <path class="st0" d="M889.51,111.82l.33,78.18c.33,40.3-5.95,77.64-30.4,77.64-26.1,0-32.71-38.99-33.7-72.36-.66-19.83-1.32-73.56-1.32-74.21h-19.5c0,2.98.66,54.73.99,74.88,1.32,44.61,12.56,91.52,53.2,91.52h.33c39.98,0,50.22-47.25,50.22-97.47l-.33-78.18h-19.83Z"/>
    <rect class="st0" x="1028.98" y="124.67" width="19.5" height="169.83" transform="translate(-1.4 7.08) rotate(-.39)"/>
  </g>
  <path class="st0" d="M1135.42,108.47c-41.27-2.1-69.74,40.03-71.18,86.97-1.71,45.99,15.82,89.82,57.71,91.95l.62.03c37.84,1.92,64.29-43.75,65.55-87.26,1.35-45.07-14.25-89.75-52.71-91.7h0ZM1169.67,199.53c-1.34,32.53-18.92,70.19-46.47,69.42-29.11-.85-42.02-36.61-40.19-72.87,1.48-35.35,20.18-70.44,51.46-68.85,25.01,1.27,36.35,37.27,35.2,72.32h0Z"/>
  </g>
</svg>