<?xml version="1.0" encoding="UTF-8"?>
<svg id="Layer_1" xmlns="http://www.w3.org/2000/svg" version="1.1" viewBox="0 0 1526.33 396.3">
  <!-- Generator: Adobe Illustrator 30.2.1, SVG Export Plug-In . SVG Version: 2.1.1 Build 1)  -->
  <defs>
    <style>
      .st0 {
        fill: #1f3964;
      }

      .st1 {
        fill: #0e7187;
      }

      .st2 {
        fill: #fbb040;
      }
    </style>
  </defs>
  <path class="st2" d="M909.69,241.99l-1.69,2.55c-24.56,37.23-74.07,62.64-129.21,66.3-37.75,2.51-75.76-4.27-102.19-33.37-17.26-19-28.64-42.32-41.94-64.05,19.59-9.72,31.38-32.29,30.11-54.13-1.27-21.83-14.62-42.13-33.15-53.76-18.53-11.63-41.62-14.94-63.16-11.12l3.4,19.5c2.27-.22,4.53-.45,6.79-.68v172.8h20.72c-.02-21.17-.04-42.32-.05-63.48,5.34-.55,10.69-1.1,16.03-1.65,13.55,18.44,22.81,39.77,36.52,58.08,20.61,27.53,50.14,45.32,84.43,49.83,8.9,1.17,18.28,1.76,27.88,1.76,5.28,0,10.64-.18,15.95-.53,28.47-1.89,56.47-9.22,81-21.22,27-13.2,48.95-31.83,63.48-53.87l1.8-2.73-16.73-10.24h0ZM599.37,202.18v-87.93c23.09,5.1,43.12,21.39,45.16,42.77,1.7,27.5-15.95,44.13-45.16,45.16Z"/>
  <path class="st2" d="M351.2,211.35c-6.45-56.01,32.25-113.39,88.61-118.82l2.04,19.69c-45.5,4.75-76.39,52.63-70.62,96.75,4.41,38.7,28.86,61.11,68.24,55l3.06,19.69c-51.94,7.13-84.87-21.72-91.33-72.32h0Z"/>
  <path class="st2" d="M524.67,202.52c-6.11.68-25.46.68-36.33.68l-21.05,76.05-19.35-5.1,19.69-72.32c-1.36,0-5.1-.34-7.81-.68l1.01-15.28c2.71.34,7.81.34,10.87.34l26.82-96.75,19.35.34,22.41,91.33c2.04,0,6.79-2.04,11.21-3.74l9.51,17.65c-4.41,2.37-10.52,4.07-16.29,5.1l23.76,97.1-19.69,4.41-24.11-99.14h0ZM520.26,184.53l-12.57-51.94-14.94,53.64c8.48,0,27.84-1.7,27.5-1.7h.01Z"/>
  <path class="st2" d="M665.43,92.19l19.35-5.43,40.74,148.36,41.09-169.4,19.69,5.1-50.58,207.09h-19.35l-50.93-185.71h0Z"/>
  <path class="st2" d="M769.4,289.68l3.87-19.68c2.64.73,5.33,1.12,7.68,1.46l21.92-151.53c-2.64-.73-4.94-1.4-7.63-1.79l4.55-19.58c14.97,3.2,27.88,8.83,38.76,16.59,37.21,27.34,45.38,75.17,31.04,122.15-13.18,41.32-46.82,60.46-90.84,54.09-3.03-.43-6.05-.88-9.36-1.7h0ZM849.93,231c4.39-13.77,6.38-27.55,5.93-40.99-.96-26.56-12.21-48.42-33.93-61.85l-20.85,144.15c29.53-2.58,43.06-22.59,48.85-41.3h0Z"/>
  <g>
    <path class="st2" d="M1211.88,282.59l3.87-19.68c2.64.73,5.33,1.12,7.68,1.46l21.92-151.53c-2.64-.73-4.94-1.4-7.63-1.79l4.55-19.58c14.97,3.2,27.88,8.83,38.76,16.59,37.21,27.34,45.38,75.17,31.04,122.15-13.18,41.32-46.82,60.46-90.84,54.09-3.03-.43-6.05-.88-9.36-1.7h0ZM1292.41,223.91c4.39-13.77,6.38-27.55,5.93-40.99-.96-26.56-12.21-48.42-33.93-61.85l-20.85,144.15c29.53-2.58,43.06-22.59,48.85-41.3h0Z"/>
    <path class="st2" d="M980.65,109.2c16.24-4.26,33.95-4.2,49.82-1.16,10.71,2.06,21.49,5.13,31.68,9.04,4.24,1.64,8.55,3.36,12.54,5.53l4.68-8.62,4.71-8.63c.26-.49-19.88-8.54-21.03-8.94-29.09-10.09-60.67-13.37-90.72-5.6-11.18,2.89-22.67,9.47-31.65,16.64-16.02,12.77-28.27,32.5-23.91,53.63,2.16,12.03,8.53,21.29,18.82,28.17,14.52,9.81,39.72,13.67,51.14,23.03,7.85,6.31,9.04,14.82,8.92,21.57.01,22.49-25.79,35.85-46.93,30.26l-4.97,19.02c8.12,2.24,16.81,2.02,25.6.43,25.69-4.62,45.61-22.63,45.82-49.53.12-16.13-5.02-27.97-15.68-36.79-18.5-15.14-58.48-15.34-63.25-40-2.66-12.13,3.81-23.34,12.51-31.31,8.99-8.24,20.06-13.65,31.9-16.77v.02Z"/>
    <polygon class="st2" points="1010.06 153.15 1043.43 153.15 1043.43 294.68 1063.91 294.68 1063.91 153.15 1097.28 153.15 1097.28 132.67 1010.06 132.67 1010.06 153.15"/>
    <path class="st2" d="M1191.72,111.82l.33,78.18c.33,40.3-5.95,77.64-30.4,77.64-26.1,0-32.71-38.99-33.7-72.36-.66-19.83-1.32-73.56-1.32-74.21h-19.5c0,2.98.66,54.73.99,74.88,1.32,44.61,12.56,91.52,53.2,91.52h.33c39.98,0,50.22-47.25,50.22-97.47l-.33-78.18h-19.83Z"/>
    <rect class="st2" x="1331.2" y="124.67" width="19.5" height="169.83" transform="translate(-1.4 9.13) rotate(-.39)"/>
  </g>
  <g>
    <path class="st0" d="M260.43,131.3c3.1-3.25,7.02-13.38,3.98-15.98-2.31-1.98-18.64,1.26-19.38,6.76-.61,4.59,10.47,10,15.4,9.22h0Z"/>
    <path class="st1" d="M139.6,122.5c.52,1.19,1.17,2.34,1.97,3.42,4.19,5.66,11.08,7.5,17.66,8.78-16.07,37.68-26.82,89.96-11.5,129.23,4.26,10.91,14.01,26.19,26.66,27.44,6.35.63,8.87-7.72,9.84-12.73l3.59-18.44c3.18-16.37,5.82-33.58,15.56-47.9l81.37-25.63c-4.37-5.47-9.77-8.62-14.82-12.26,15.73-7.16,29.31-18.96,32.58-36.59,2.76-14.88-1.79-30.13-11.45-41.68-2.93-3.51-6.29-5.97-10.28-8.18,4.42-2.51,8.22-6.46,8.82-11.73.82-7.26-4.56-14.94-11.6-16.8-6.04-1.58-12.02.94-15.53,5.96-1.14,1.62-1.94,3.36-2.44,5.09-19.38-8.94-56.71-17.62-90.37,23.64-4.64-2.34-10.14-3.01-15.2-1.84-12.32,2.86-19.83,18.8-14.89,30.22h.01ZM263.18,159.31c-3.79-2.65-6.29-6.23-9.19-10.05l12.1-1.58,3.91,10.61c-1.87.87-4.97,2.31-6.82,1.01h-.01ZM273.5,157.15l-4.74-10.59,7.51-6.33,3.1,13.37c-1.68,1.48-3.32,2.46-5.87,3.56h-.01ZM272.21,96.32c4.98-.2,9.12,3.27,9.78,7.87-.34-.47-.71-.93-1.16-1.33-2.62-2.34-6.26-2.54-8.15-.44-1.09,1.2-1.32,2.91-.84,4.58-2.55-1.18-4.02-4.23-3.55-7.12.33-1.96,1.88-3.48,3.91-3.56h0ZM237.09,123.3c1.95-6.33,6.75-12.03,13.07-14.4,9.85-3.7,23.49-.16,27.93,10.91,2.88,7.19.51,14.51-6.23,18.94-9.9,6.52-23.59,10.43-31.93-.05-3.38-4.25-4.59-9.76-2.85-15.38h0ZM206.5,124.4c1-1.98,3.28-4.33,6.26-4.67,6.68-.79,12.27,4.03,12.76,11.07-1.8-1.52-3.51-3.01-5.67-3.92-2.92-1.24-6.39-.25-7.98,2.8-1.27,2.44-1.19,4.99-1.16,7.93-4.37-2.71-6.68-8.32-4.2-13.21h-.01Z"/>
    <path class="st0" d="M212.13,227.56c14.92,1.38,36.95-3.42,49.03-12.6-11.85.12-22.61,1.99-33.34,4.98-5.43,1.9-10.87,3.25-15.69,7.62h0Z"/>
    <path class="st1" d="M281.94,308.65c-8.48-7.55-31.67-24.96-39.22-8.72-6.04,12.99-.33,28.91,12.66,35.32,5.1,2.52,10.76,2.56,16.16,1.17,13.35-3.44,29.45-17.5,22.77-31.83l-12.38,4.06h0Z"/>
    <path class="st0" d="M330.33,271.76c1.87-20.06-2.28-39.99-11.58-57.74-4.57-8.72-12.27-18.74-21.73-21.91-6.24-2.09-12.28.06-16.36,4.97-5.78,6.95-8.13,17.98-8.48,27.13l-27.82,17.11c13.17,1.06,20.81-1.73,29.87,7.94,2.27,8.97,4.73,17.35,8.9,25.46,4.63,8.99,11.7,19.26,21.18,23.35,7.06,3.05,14.44.77,18.89-5.62,4.16-5.96,6.46-13.09,7.16-20.68h-.01ZM309.54,264.35c-2.34-2.5-4.07-5.59-4.62-10.12l3.84,4.03c.44.46,1.93.66,2.47.31,3.11-2.13.19-15.3.07-19.68,4.59,4.15,7.07,30.94-1.76,25.47h0ZM306.27,221c-3.4-2.44-7.38-2.16-10.43,1.22-.72-2.53.61-5.45,2.33-6.63,7.39-5.02,15.55,9.66,17.2,15.9-2.95-3.88-5.3-7.78-9.09-10.5h0ZM293.16,198.41c8.25-.11,18.12,11.57,21.22,16.56-5.98-4.9-16.26-16.26-24.81-10.73-5.53,3.58-6.98,8.55-9.24,13.25-.18-6.24,3.25-18.96,12.83-19.09h0ZM288.55,219.48c-1.54,15.01,2.16,29.56,10.42,41.65-4.47-4.19-7.47-8.81-10.36-13.99-4.63-8.92-4.45-18.71-.06-27.67h0ZM311.96,291.44c-14.75.63-24.66-26.55-27.23-35.45,5.95,9.03,13.19,22.3,22.68,27.99,13.05,7.81,14.17-26.06,13.37-25.7l.96-.43c.38,7.68,1.96,33.1-9.8,33.6h.02Z"/>
    <path class="st0" d="M205.88,269.01c10.71,2.05,26.3.83,35.02-6.65-10.28-2.89-27.01-.94-35.02,6.65h0Z"/>
    <path class="st0" d="M161.5,315.55c16.15,4.8,34.51-1.18,47.07-10.55-15.09-2.67-35.3,1.47-47.07,10.55Z"/>
    <path class="st0" d="M136.79,247.99c-10.28-19.79-25.86-41.94-45.08-53.77-15.11-9.3-38.64-14.34-49.94,3.3-11.12,17.36-4.59,43.61,4.23,61.03,13.14,25.93,33.9,47.46,59.25,61.75,13.46,7.6,27.89,12.78,43.23,14.43-13.49-18.51-19.7-43.87-17.94-65.54.63-7.68,2.31-14.59,6.25-21.21h0ZM104.22,275.33c-.74,2.35-.69,4.27-.79,6.63-.32,7.32-.58,14.25-1.57,22.15-1.84-10.3-2.38-20.5-2.91-31.45-6.94-3.44-13.92-6.02-20.93-8.75,7.25.06,13.93,1.42,20.71,4.41l.12-26.78c-8.64-4.81-17.38-9-26.81-13.34l-1.17,40.54c-2.61-9.35-3.4-18.33-3.34-27.66l.08-14.91-14.1-6.16c5.02.42,9.35,1.48,14.38,2.54,1-8.81,1.38-17.12,3.17-25.69.99,9.03.73,17.66.91,26.93,9.77,2.93,18.44,7.3,27.2,12.66l1.16-13.39,2.44,15.85c6.34,5.19,12.56,10.28,17.59,17.26-5.21-4.28-10.73-8.47-17.07-11.94l.6,26.82c4.95,3.53,9.25,7.33,12.78,12.56l-12.41-8.24h0l-.02-.02Z"/>
  </g>
  <path class="st2" d="M1437.64,108.47c-41.27-2.1-69.74,40.03-71.18,86.97-1.71,45.99,15.82,89.82,57.71,91.95l.62.03c37.84,1.92,64.29-43.75,65.55-87.26,1.35-45.07-14.25-89.75-52.71-91.7h0ZM1471.89,199.53c-1.34,32.53-18.92,70.19-46.47,69.42-29.11-.85-42.02-36.61-40.19-72.87,1.48-35.35,20.18-70.44,51.46-68.85,25.01,1.27,36.35,37.27,35.2,72.32h0Z"/>
</svg>