<?xml version="1.0" encoding="UTF-8"?>
<svg id="Layer_1" xmlns="http://www.w3.org/2000/svg" version="1.1" viewBox="0 0 750 750">
  <!-- Generator: Adobe Illustrator 30.2.1, SVG Export Plug-In . SVG Version: 2.1.1 Build 1)  -->
  <defs>
    <style>
      .st0 {
        fill: #1f3864;
      }

      .st1 {
        fill: #097187;
      }
    </style>
  </defs>
  <path class="st0" d="M560.31,214.34c7.46-7.82,16.86-32.15,9.56-38.42-5.56-4.78-44.82,3.02-46.59,16.25-1.47,11.04,25.16,24.03,37.02,22.17Z"/>
  <path class="st1" d="M269.88,193.18c1.24,2.87,2.81,5.62,4.73,8.21,10.06,13.58,26.63,18.04,42.44,21.1-38.62,90.55-64.47,216.22-27.64,310.6,10.24,26.23,33.67,62.93,64.08,65.96,15.27,1.52,21.33-18.56,23.67-30.62l8.61-44.34c7.64-39.35,14.01-80.71,37.41-115.12l195.57-61.59c-10.51-13.14-23.48-20.72-35.64-29.46,37.82-17.22,70.44-45.56,78.32-87.95,6.65-35.75-4.3-72.43-27.51-100.18-7.06-8.44-15.11-14.35-24.69-19.65,10.62-6.03,19.75-15.52,21.19-28.21,1.98-17.44-10.96-35.92-27.87-40.36-14.5-3.81-28.88,2.26-37.32,14.32-2.73,3.9-4.66,8.07-5.85,12.23-46.58-21.47-136.31-42.35-217.21,56.82-11.17-5.63-24.36-7.22-36.54-4.4-29.63,6.87-47.64,45.18-35.77,72.64ZM566.92,281.66c-9.11-6.36-15.12-14.96-22.1-24.16l29.08-3.8,9.41,25.52c-4.5,2.09-11.95,5.55-16.39,2.44ZM591.73,276.45l-11.39-25.46,18.05-15.21,7.45,32.13c-4.04,3.55-8,5.9-14.1,8.54ZM588.64,130.25c11.96-.47,21.92,7.85,23.5,18.93-.8-1.13-1.69-2.22-2.78-3.2-6.29-5.63-15.05-6.11-19.57-1.07-2.6,2.9-3.17,6.99-2.04,11.01-6.13-2.85-9.66-10.17-8.51-17.12.78-4.72,4.52-8.36,9.4-8.55ZM504.22,195.11c4.7-15.22,16.24-28.9,31.42-34.61,23.68-8.91,56.46-.39,67.13,26.21,6.92,17.26,1.22,34.86-14.97,45.51-23.79,15.66-56.7,25.07-76.73-.12-8.12-10.21-11.03-23.45-6.85-36.98ZM430.7,197.75c2.4-4.76,7.89-10.39,15.03-11.23,16.06-1.89,29.49,9.69,30.66,26.61-4.33-3.65-8.45-7.23-13.62-9.43-7.03-2.99-15.37-.6-19.17,6.73-3.04,5.86-2.86,12-2.8,19.07-10.5-6.53-16.04-20-10.1-31.75Z"/>
  <path class="st0" d="M444.21,445.71c35.85,3.31,88.8-8.21,117.84-30.28-28.49.27-54.35,4.79-80.13,11.96-13.05,4.57-26.11,7.81-37.71,18.31Z"/>
  <path class="st1" d="M612.02,640.59c-20.38-18.16-76.12-60.01-94.26-20.94-14.5,31.23-.78,69.49,30.43,84.9,12.25,6.05,25.86,6.16,38.84,2.81,32.09-8.26,70.79-42.06,54.73-76.52l-29.74,9.76Z"/>
  <path class="st0" d="M728.32,551.94c4.5-48.2-5.49-96.1-27.85-138.8-10.97-20.95-29.49-45.05-52.24-52.66-15-5.01-29.52.15-39.32,11.94-13.9,16.72-19.55,43.21-20.39,65.21l-66.88,41.13c31.64,2.54,50.02-4.17,71.79,19.09,5.45,21.56,11.37,41.69,21.41,61.18,11.13,21.6,28.13,46.27,50.89,56.12,16.96,7.34,34.71,1.84,45.4-13.51,9.98-14.34,15.51-31.46,17.21-49.7ZM678.35,534.13c-5.63-6.01-9.8-13.44-11.1-24.32l9.22,9.68c1.06,1.11,4.65,1.61,5.93.73,7.48-5.13.45-36.77.19-47.3,11.03,9.97,16.99,74.35-4.24,61.22ZM670.48,429.93c-8.16-5.86-17.73-5.2-25.07,2.95-1.72-6.09,1.46-13.1,5.61-15.92,17.76-12.06,37.37,23.22,41.33,38.21-7.11-9.34-12.73-18.68-21.87-25.24ZM638.96,375.63c19.83-.26,43.53,27.81,50.99,39.81-14.38-11.77-39.09-39.08-59.61-25.79-13.29,8.6-16.8,20.55-22.22,31.86-.43-14.98,7.8-45.58,30.84-45.88ZM627.88,426.28c-3.71,36.08,5.21,71.06,25.06,100.12-10.74-10.06-17.95-21.18-24.9-33.62-11.14-21.44-10.71-44.96-.16-66.51ZM684.16,599.24c-35.46,1.53-59.26-63.8-65.45-85.21,14.29,21.7,31.69,53.61,54.53,67.27,31.37,18.77,34.07-62.64,32.14-61.78l2.32-1.04c.91,18.46,4.71,79.54-23.55,80.76Z"/>
  <path class="st0" d="M429.19,545.33c25.73,4.91,63.22,2.01,84.17-15.97-24.69-6.96-64.92-2.25-84.17,15.97Z"/>
  <path class="st0" d="M322.54,657.17c38.83,11.53,82.95-2.83,113.12-25.36-36.26-6.42-84.86,3.53-113.12,25.36Z"/>
  <path class="st0" d="M263.14,494.81c-24.69-47.58-62.16-100.8-108.37-129.22-36.32-22.33-92.87-34.46-120.03,7.93-26.72,41.71-11.04,104.81,10.18,146.69,31.58,62.34,81.48,114.06,142.42,148.43,32.36,18.25,67.03,30.72,103.89,34.68-32.43-44.47-47.35-105.45-43.1-157.54,1.51-18.47,5.55-35.08,15.01-50.97ZM184.87,560.5c-1.77,5.65-1.65,10.28-1.9,15.92-.77,17.59-1.39,34.26-3.77,53.22-4.42-24.75-5.74-49.27-7.01-75.6-16.68-8.26-33.45-14.49-50.31-21.02,17.42.16,33.48,3.43,49.79,10.6l.28-64.37c-20.76-11.56-41.76-21.62-64.45-32.05l-2.82,97.44c-6.26-22.48-8.16-44.04-8.04-66.49l.2-35.84-33.89-14.82c12.06,1.02,22.46,3.55,34.57,6.11,2.4-21.18,3.31-41.15,7.6-61.76,2.38,21.72,1.76,42.44,2.18,64.72,23.48,7.06,44.33,17.54,65.38,30.42l2.78-32.19,5.85,38.09c15.25,12.47,30.19,24.7,42.27,41.5-12.52-10.3-25.78-20.37-41.03-28.71l1.44,64.47c11.9,8.49,22.23,17.63,30.71,30.17l-29.83-19.81Z"/>
</svg>