<?xml version="1.0" encoding="UTF-8"?>
<svg id="Layer_1" xmlns="http://www.w3.org/2000/svg" version="1.1" viewBox="0 0 695.21 837.66">
  <!-- Generator: Adobe Illustrator 30.2.1, SVG Export Plug-In . SVG Version: 2.1.1 Build 1)  -->
  <defs>
    <style>
      .st0 {
        fill: #fff;
      }

      .st1 {
        fill: #fbb040;
      }
    </style>
  </defs>
  <g>
    <g>
      <path class="st1" d="M641.22,493.75l-1.8,2.72c-26.18,39.69-78.96,66.78-137.74,70.68-40.25,2.67-80.76-4.56-108.93-35.58-18.4-20.26-30.52-45.12-44.7-68.28,20.88-10.36,33.45-34.42,32.1-57.69s-15.59-44.91-35.33-57.3c-19.75-12.39-44.38-15.93-67.33-11.86,1.21,6.93,2.42,13.86,3.63,20.78,2.41-.24,4.83-.48,7.24-.72v184.21h22.09c-.02-22.56-.04-45.12-.06-67.67,5.69-.58,11.39-1.17,17.08-1.75,14.44,19.66,24.31,42.39,38.93,61.92,21.96,29.35,53.45,48.31,90,53.12,9.49,1.25,19.49,1.88,29.72,1.88,5.62,0,11.34-.19,17.01-.57,30.34-2.01,60.2-9.84,86.34-22.62,28.78-14.08,52.18-33.94,67.68-57.43l1.92-2.91-17.84-10.92h0ZM310.43,451.31v-93.73c24.61,5.43,45.96,22.8,48.13,45.6,1.81,29.32-17.01,47.05-48.13,48.13Z"/>
      <path class="st1" d="M45.86,461.08c-6.88-59.72,34.38-120.88,94.46-126.67l2.17,20.99c-48.5,5.07-81.43,56.1-75.28,103.14,4.7,41.26,30.76,65.14,72.74,58.63l3.26,20.99c-55.37,7.6-90.48-23.16-97.35-77.09h0Z"/>
      <path class="st1" d="M230.8,451.67c-6.51.72-27.14.72-38.72.72l-22.44,81.07-20.63-5.43,20.99-77.08c-1.45,0-5.43-.36-8.32-.72l1.09-16.29c2.9.36,8.32.36,11.58.36l28.59-103.14,20.63.36,23.89,97.35c2.17,0,7.24-2.17,11.94-3.98l10.13,18.82c-4.7,2.53-11.22,4.34-17.37,5.43l25.33,103.51-20.99,4.7-25.7-105.68h0ZM226.1,432.49l-13.39-55.37-15.92,57.18c9.05,0,29.68-1.81,29.31-1.81Z"/>
      <path class="st1" d="M380.85,334.05l20.63-5.79,43.43,158.15,43.79-180.59,20.99,5.43-53.92,220.76h-20.63l-54.29-197.96h0Z"/>
      <path class="st1" d="M491.68,544.58l4.13-20.98c2.81.77,5.68,1.19,8.19,1.55l23.37-161.54c-2.81-.77-5.27-1.49-8.13-1.91l4.85-20.87c15.96,3.41,29.72,9.42,41.32,17.68,39.66,29.14,48.38,80.13,33.09,130.21-14.05,44.04-49.91,64.45-96.83,57.66-3.22-.47-6.45-.93-9.98-1.81h0ZM577.52,482.04c4.68-14.68,6.81-29.37,6.32-43.7-1.02-28.31-13.01-51.62-36.17-65.94l-22.23,153.66c31.48-2.76,45.9-24.08,52.08-44.03h0Z"/>
    </g>
    <g>
      <g>
        <path class="st1" d="M351.67,782.96l4.13-20.98c2.81.77,5.68,1.19,8.19,1.55l23.37-161.54c-2.81-.77-5.27-1.49-8.13-1.91l4.85-20.87c15.96,3.41,29.72,9.42,41.32,17.68,39.66,29.14,48.38,80.13,33.09,130.21-14.05,44.04-49.91,64.45-96.83,57.66-3.22-.47-6.45-.93-9.98-1.81h-.01ZM437.51,720.41c4.68-14.68,6.81-29.37,6.32-43.7-1.02-28.31-13.01-51.62-36.17-65.94l-22.23,153.66c31.48-2.76,45.9-24.08,52.08-44.03h0Z"/>
        <path class="st1" d="M105.18,598.12c17.31-4.55,36.19-4.48,53.11-1.24,11.42,2.19,22.91,5.47,33.77,9.64,4.52,1.74,9.11,3.58,13.37,5.9l5-9.19,5.02-9.2c.28-.51-21.19-9.1-22.41-9.52-31.01-10.75-64.67-14.25-96.7-5.97-11.92,3.08-24.17,10.1-33.75,17.74-17.07,13.61-30.13,34.64-25.49,57.18,2.31,12.83,9.09,22.7,20.07,30.03,15.48,10.46,42.34,14.58,54.51,24.56,8.37,6.73,9.64,15.8,9.5,22.99.01,23.97-27.49,38.22-50.03,32.25l-5.3,20.28c8.66,2.38,17.92,2.15,27.28.46,27.39-4.92,48.63-24.13,48.84-52.79.13-17.2-5.36-29.81-16.71-39.22-19.72-16.14-62.34-16.35-67.42-42.63-2.84-12.94,4.06-24.88,13.34-33.39,9.58-8.78,21.38-14.55,34.01-17.87h-.01Z"/>
        <polygon class="st1" points="136.52 644.97 172.1 644.97 172.1 795.85 193.93 795.85 193.93 644.97 229.51 644.97 229.51 623.14 136.52 623.14 136.52 644.97"/>
        <path class="st1" d="M330.19,600.92l.35,83.35c.35,42.97-6.34,82.77-32.4,82.77-27.82,0-34.87-41.56-35.93-77.14-.7-21.13-1.41-78.41-1.41-79.12h-20.78c0,3.17.71,58.34,1.06,79.82,1.41,47.55,13.39,97.56,56.71,97.56h.35c42.62,0,53.54-50.37,53.54-103.9l-.35-83.35h-21.14Z"/>
        <rect class="st1" x="478.9" y="614.7" width="20.78" height="181.04" transform="translate(-4.79 3.35) rotate(-.39)"/>
      </g>
      <path class="st1" d="M592.34,597.33c-44-2.23-74.34,42.67-75.88,92.72-1.82,49.03,16.86,95.75,61.52,98.02l.67.03c40.33,2.05,68.53-46.64,69.88-93.02,1.43-48.04-15.19-95.67-56.19-97.75h0ZM628.84,694.42c-1.43,34.68-20.17,74.83-49.53,74.01-31.03-.91-44.8-39.03-42.84-77.69,1.58-37.68,21.52-75.09,54.85-73.4,26.66,1.35,38.75,39.73,37.52,77.09h0Z"/>
    </g>
  </g>
  <g>
    <g>
      <path class="st0" d="M234.81,211.11l-2.31-15.04-1.1,12.71c-8.31-5.08-16.54-9.22-25.81-12.01-.16-8.79.08-16.97-.86-25.55-1.7,8.14-2.05,16.02-3,24.38-4.78-1.01-8.88-2.01-13.65-2.41l13.38,5.85-.08,14.15c-.05,8.86.7,17.37,3.17,26.25l1.11-38.46c8.95,4.11,17.25,8.09,25.44,12.65l-.11,25.41c-6.44-2.83-12.78-4.12-19.66-4.19,6.66,2.58,13.27,5.04,19.86,8.3.5,10.39,1.02,20.07,2.77,29.84.94-7.48,1.19-14.06,1.49-21.01.1-2.23.05-4.05.75-6.28l11.77,7.82c-3.35-4.95-7.42-8.56-12.12-11.91l-.57-25.45c6.02,3.29,11.25,7.27,16.2,11.33-4.77-6.63-10.67-11.46-16.69-16.38Z"/>
      <path class="st0" d="M337.25,115.03c-.02-2.79-.09-5.21,1.11-7.53,1.5-2.89,4.79-3.83,7.57-2.65,2.04.87,3.67,2.28,5.38,3.72-.46-6.68-5.76-11.25-12.1-10.5-2.82.33-4.98,2.56-5.93,4.43-2.34,4.64-.16,9.95,3.99,12.53Z"/>
      <path class="st0" d="M395.26,85.99c-.45-1.59-.22-3.2.8-4.35,1.78-1.99,5.24-1.8,7.72.42.43.39.78.82,1.1,1.26-.62-4.37-4.56-7.66-9.28-7.47-1.93.08-3.4,1.51-3.71,3.38-.45,2.74.94,5.63,3.36,6.76Z"/>
      <path class="st0" d="M392.33,123.52l4.5,10.05c2.41-1.04,3.97-1.97,5.57-3.37l-2.94-12.68-7.12,6.01Z"/>
      <path class="st0" d="M378.31,126.09c2.76,3.63,5.13,7.03,8.72,9.54,1.75,1.23,4.69-.14,6.47-.96l-3.71-10.07-11.48,1.5Z"/>
      <path class="st0" d="M395.28,116.11c6.39-4.2,8.64-11.15,5.91-17.96-4.21-10.5-17.15-13.86-26.5-10.34-5.99,2.26-10.55,7.65-12.4,13.66-1.65,5.34-.5,10.57,2.7,14.6,7.91,9.95,20.9,6.23,30.29.05ZM388.2,93.89c2.88,2.48-.83,12.08-3.78,15.17-4.68.73-15.2-4.4-14.61-8.75.7-5.22,16.19-8.3,18.39-6.41Z"/>
      <path class="st0" d="M442.45,193.11c-2.03-5.22-4.79-10.18-8.48-14.64,2.27,2.94,4.23,6.08,5.79,9.06.96,1.83,1.85,3.7,2.7,5.58Z"/>
      <polygon class="st0" points="440.23 265.8 440.23 265.8 440.22 265.8 440.23 265.8"/>
      <path class="st0" d="M405.95,245.12c-3.96-7.69-6.3-15.64-8.45-24.15-8.59-9.19-15.85-6.54-28.34-7.54l26.4-16.24c.33-8.68,2.56-19.14,8.05-25.74,3.87-4.65,9.6-6.69,15.52-4.71.71.24,1.41.53,2.1.85-3.99-2.4-8.54-4.44-13.73-6.01l-77.2,24.31c-9.24,13.59-11.75,29.91-14.77,45.45l-3.4,17.5c-.93,4.76-3.32,12.69-9.34,12.09-12.01-1.2-21.26-15.68-25.3-26.04-2.78-7.11-4.64-14.68-5.75-22.51-1.59,2.13-3.19,4.56-4.68,7.28.02.04.04.08.06.12-3.73,6.27-5.33,12.83-5.93,20.12-1.49,18.24,2.67,37.21,11.4,53.28,2.31,4.26,4.62,8.37,8.37,11.55,4.27,3.62,9.55,6.16,15.15,6.8,6.23.71,11.31-1.62,17.01-3.67,4.95-1.78,9.99-3.33,14.99-4.98,10.34-3.42,20.68-6.84,31.01-10.25,2.81-.93,5.62-1.86,8.44-2.79-2.84-6.47-3.06-14.04.07-20.78,7.16-15.42,29.17,1.1,37.21,8.27l11.74-3.85s.04.09.06.14l15.32-5.07c-1.95,0-3.95-.41-5.93-1.26-8.98-3.89-15.69-13.63-20.09-22.15ZM290.56,283.86c11.16-8.62,30.34-12.55,44.65-10.01-11.91,8.9-29.33,14.56-44.65,10.01ZM332.66,239.71c7.6-7.19,23.48-9.05,33.22-6.3-8.27,7.1-23.07,8.24-33.22,6.3ZM338.6,200.38c4.58-4.14,9.73-5.43,14.89-7.23,10.18-2.83,20.38-4.62,31.63-4.72-11.46,8.71-32.36,13.26-46.52,11.95Z"/>
      <path class="st0" d="M431.02,235.29c-2.22-2.37-3.87-5.31-4.38-9.6l3.64,3.82c.42.44,1.84.64,2.34.29,2.95-2.03.18-14.52.07-18.67,4.36,3.94,6.71,29.35-1.67,24.16Z"/>
      <path class="st0" d="M427.91,194.16c-3.22-2.31-7-2.05-9.9,1.16-.68-2.41.58-5.17,2.22-6.29,7.01-4.76,14.75,9.17,16.31,15.08-2.81-3.69-5.03-7.37-8.63-9.96Z"/>
      <path class="st0" d="M415.47,172.72c7.83-.1,17.18,10.98,20.13,15.72-5.68-4.65-15.43-15.43-23.53-10.18-5.25,3.4-6.63,8.11-8.77,12.58-.17-5.91,3.08-17.99,12.17-18.11Z"/>
      <path class="st0" d="M411.1,192.72c-1.46,14.24,2.06,28.05,9.89,39.52-4.24-3.97-7.09-8.36-9.83-13.27-4.4-8.46-4.23-17.75-.06-26.25Z"/>
      <path class="st0" d="M433.32,260.99c-14,.6-23.39-25.18-25.83-33.64,5.64,8.57,12.51,21.16,21.53,26.56,12.38,7.41,13.45-24.73,12.69-24.39l.92-.41c.36,7.29,1.86,31.4-9.29,31.88Z"/>
    </g>
    <path class="st0" d="M387.03,135.63c-3.6-2.51-5.97-5.9-8.72-9.54l11.48-1.5,3.71,10.07c-1.78.83-4.72,2.19-6.47.96Z"/>
    <path class="st0" d="M396.83,133.57l-4.5-10.05,7.12-6.01,2.94,12.68c-1.6,1.4-3.16,2.33-5.57,3.37Z"/>
    <path class="st0" d="M391.9,79.23c.31-1.86,1.78-3.3,3.71-3.38,4.72-.19,8.65,3.1,9.28,7.47-.31-.45-.67-.88-1.1-1.26-2.48-2.22-5.94-2.41-7.72-.42-1.02,1.14-1.25,2.76-.8,4.35-2.42-1.12-3.81-4.02-3.36-6.76Z"/>
    <path class="st0" d="M333.26,102.5c.95-1.88,3.12-4.1,5.93-4.43,6.34-.74,11.64,3.83,12.1,10.5-1.71-1.44-3.34-2.85-5.38-3.72-2.78-1.18-6.07-.24-7.57,2.65-1.2,2.31-1.13,4.74-1.11,7.53-4.15-2.58-6.33-7.9-3.99-12.53Z"/>
    <path class="st0" d="M401.19,98.14c-4.21-10.5-17.15-13.86-26.5-10.34-5.99,2.26-10.55,7.65-12.4,13.66-1.65,5.34-.5,10.57,2.7,14.6,7.91,9.95,20.9,6.23,30.29.05,6.39-4.2,8.64-11.15,5.91-17.96ZM384.42,109.05c-4.68.73-15.2-4.4-14.61-8.75.7-5.22,16.19-8.3,18.39-6.41,2.88,2.48-.83,12.08-3.78,15.17Z"/>
    <path class="st0" d="M235.87,241.61c4.7,3.35,8.78,6.96,12.12,11.91l-11.77-7.82c-.7,2.23-.65,4.06-.75,6.28-.3,6.94-.55,13.52-1.49,21.01-1.75-9.77-2.27-19.45-2.77-29.84-6.59-3.26-13.2-5.72-19.86-8.3,6.88.06,13.22,1.35,19.66,4.19l.11-25.41c-8.19-4.56-16.49-8.54-25.44-12.65l-1.11,38.46c-2.47-8.88-3.22-17.39-3.17-26.25l.08-14.15-13.38-5.85c4.76.4,8.87,1.4,13.65,2.41.95-8.36,1.31-16.25,3-24.38.94,8.58.69,16.75.86,25.55,9.27,2.79,17.5,6.93,25.81,12.01l1.1-12.71,2.31,15.04c6.02,4.92,11.92,9.75,16.69,16.38-4.94-4.07-10.18-8.04-16.2-11.33l.57,25.45Z"/>
    <g>
      <path class="st0" d="M397.68,40.41c1.13,0,2.27.14,3.42.45,6.67,1.75,11.78,9.05,11,15.93-.57,5.01-4.17,8.76-8.36,11.14,3.78,2.09,6.96,4.43,9.75,7.76,9.16,10.96,13.49,25.44,10.86,39.55-3.11,16.74-15.99,27.92-30.92,34.72,4.8,3.45,9.92,6.44,14.07,11.63l-77.2,24.31c-9.24,13.59-11.75,29.91-14.77,45.45l-3.4,17.5c-.89,4.59-3.15,12.12-8.7,12.12-.21,0-.42-.01-.64-.03-12.01-1.2-21.26-15.68-25.3-26.04-2.78-7.11-4.64-14.68-5.75-22.51-4.7-33.19,4.33-71.18,16.66-100.1-6.24-1.21-12.78-2.97-16.75-8.33-.76-1.02-1.38-2.11-1.87-3.24-4.69-10.84,2.42-25.96,14.12-28.67,1.56-.36,3.16-.54,4.76-.54,3.34,0,6.68.77,9.66,2.28,18.55-22.74,38.28-29.49,55.16-29.49,12.18,0,22.88,3.51,30.58,7.06.47-1.64,1.23-3.29,2.31-4.83,2.67-3.81,6.83-6.1,11.31-6.1M397.68,36.49h0c-5.69,0-11.11,2.9-14.52,7.77-.43.62-.83,1.25-1.19,1.91-9.41-3.81-19.19-5.81-28.49-5.81-21.06,0-39.99,9.64-56.31,28.67-2.71-.96-5.61-1.46-8.52-1.46-1.91,0-3.81.22-5.65.64-6.54,1.52-12.24,6.25-15.64,12.99-3.47,6.88-3.91,14.75-1.19,21.05.62,1.43,1.4,2.78,2.31,4.02,3.65,4.93,8.93,7.32,14.51,8.8-7.62,18.99-20.67,58.8-15.15,97.85,1.19,8.39,3.2,16.26,5.98,23.39,4.81,12.32,15.17,27.18,28.55,28.51.34.03.69.05,1.03.05,8.33,0,11.44-9.58,12.55-15.29l3.4-17.5c.25-1.29.5-2.59.75-3.89,2.57-13.48,5.23-27.41,12.68-38.99l75.88-23.89,5.45-1.72-3.57-4.46c-2.94-3.67-6.22-6.29-9.52-8.64,15.16-8.44,24.5-20.28,27.16-34.55,2.78-14.96-1.48-30.55-11.71-42.78-1.72-2.06-3.62-3.85-5.86-5.5,3.06-2.96,4.93-6.54,5.37-10.44,1.01-8.84-5.23-17.89-13.9-20.16-1.45-.38-2.94-.57-4.41-.57h0Z"/>
      <path class="st0" d="M377.28,262.68c9.44,0,21.93,9.61,27.56,14.64l11.74-3.85s.04.09.06.14c6.17,13.56-9.04,26.82-21.66,30.07-2.16.56-4.35.87-6.54.87-3.01,0-5.99-.6-8.79-1.98-5.58-2.76-9.73-7.37-12.08-12.74-2.84-6.47-3.06-14.04.07-20.78,2.14-4.62,5.62-6.37,9.65-6.37M377.28,258.76h0c-6.01,0-10.57,2.99-13.2,8.64-3.48,7.48-3.51,16.23-.1,24,2.82,6.42,7.76,11.63,13.93,14.67,3.2,1.58,6.75,2.38,10.53,2.38,2.43,0,4.96-.33,7.52-.99,8.26-2.13,19.27-8.83,23.9-18.53,2.69-5.64,2.82-11.48.38-16.89-.03-.08-.07-.16-.1-.23l-1.47-3.15-3.3,1.08-9.63,3.16c-5.53-4.67-18.02-14.14-28.45-14.14h0Z"/>
      <path class="st0" d="M198.45,160.74c8.96,0,18.49,3.48,25.88,8.03,18.2,11.19,32.97,32.14,42.71,50.89.02.04.04.08.06.12-3.73,6.27-5.33,12.83-5.93,20.12-1.68,20.56,4.22,44.64,17.02,62.19-.48-.05-.96-.12-1.43-.17-14.02-1.72-27.22-6.55-39.58-13.51-24.06-13.57-43.76-33.98-56.22-58.59-8.38-16.53-14.57-41.44-4.02-57.91,5.19-8.1,13.09-11.16,21.5-11.16M198.45,156.82c-10.79,0-19.36,4.48-24.8,12.96-5.32,8.3-7.23,18.91-5.68,31.52,1.21,9.82,4.58,20.57,9.5,30.27,12.82,25.32,32.81,46.15,57.79,60.23,13.47,7.59,27.27,12.3,41.02,13.99l.43.05c.35.05.71.09,1.06.13l8.79.94-5.21-7.14c-11.72-16.08-17.96-38.9-16.28-59.56.61-7.52,2.27-13.2,5.39-18.44l1.11-1.87-1-1.93-.06-.11c-7.22-13.88-22.54-39.14-44.14-52.42-8.89-5.47-19.07-8.61-27.93-8.61h0Z"/>
    </g>
    <path class="st0" d="M432.3,270.39c-2.23,0-4.51-.47-6.76-1.44-9.76-4.22-16.83-14.87-21.05-23.05-3.84-7.45-6.18-15.03-8.48-24.07-5.88-6.08-10.99-6.15-18.65-6.26-2.39-.03-5.11-.07-8.08-.31l-5.98-.48,30.63-18.83c.32-5.8,1.81-17.88,8.45-25.87,2.45-2.95,5.55-4.94,8.98-5.76h0c2.85-.68,5.76-.53,8.67.44,11.33,3.78,18.97,16.46,21.74,21.74,9.12,17.41,13,36.74,11.21,55.88-.74,7.9-3.14,14.81-7.14,20.56-3.37,4.85-8.3,7.45-13.54,7.45ZM375.9,211.63c.51,0,1.01.01,1.51.02,8.17.11,14.63.2,21.79,7.86l.34.37.12.49c2.28,9,4.56,16.48,8.3,23.74,3.92,7.62,10.43,17.49,19.12,21.25,5.74,2.49,11.84.66,15.53-4.65,3.61-5.18,5.78-11.47,6.45-18.68,1.72-18.39-2.01-36.96-10.78-53.7-5.29-10.11-12.59-17.53-19.51-19.84-2.2-.74-4.39-.85-6.52-.34h0c-2.59.62-4.97,2.16-6.88,4.45-6.3,7.58-7.41,19.7-7.6,24.56l-.04,1.05-21.85,13.44ZM395.84,197.07h.01-.01Z"/>
  </g>
</svg>