<?xml version="1.0" encoding="UTF-8"?>
<svg id="Layer_1" xmlns="http://www.w3.org/2000/svg" version="1.1" viewBox="0 0 1231.46 537.9">
  <!-- Generator: Adobe Illustrator 30.2.1, SVG Export Plug-In . SVG Version: 2.1.1 Build 1)  -->
  <defs>
    <style>
      .st0 {
        fill: none;
      }

      .st1 {
        fill: #fbb040;
      }
    </style>
  </defs>
  <path class="st1" d="M605.52,310.5l-1.6,2.42c-23.28,35.29-70.2,59.37-122.46,62.84-35.78,2.38-71.8-4.05-96.85-31.63-16.36-18.01-27.14-40.11-39.75-60.71,18.57-9.21,29.74-30.6,28.54-51.3-1.2-20.69-13.86-39.93-31.42-50.95-17.56-11.02-39.45-14.16-59.86-10.54l3.22,18.48c2.15-.21,4.29-.43,6.44-.64,0,54.59,0,109.19,0,163.78,6.55,0,13.09,0,19.64,0-.02-20.06-.04-40.11-.05-60.17,5.06-.52,10.13-1.04,15.19-1.56,12.84,17.48,21.62,37.69,34.61,55.05,19.53,26.09,47.52,42.95,80.02,47.23,8.44,1.11,17.33,1.67,26.42,1.67,5,0,10.08-.17,15.12-.5,26.98-1.79,53.52-8.74,76.77-20.11,25.59-12.51,46.39-30.17,60.17-51.06l1.71-2.59-15.86-9.71ZM311.41,272.77v-83.34c21.88,4.83,40.87,20.27,42.8,40.54,1.61,26.06-15.12,41.83-42.8,42.8Z"/>
  <path class="st1" d="M76.19,281.46c-6.11-53.09,30.57-107.47,83.98-112.62l1.93,18.66c-43.12,4.5-72.4,49.88-66.93,91.7,4.18,36.68,27.35,57.92,64.68,52.13l2.9,18.66c-49.23,6.76-80.44-20.59-86.56-68.54Z"/>
  <path class="st1" d="M240.61,273.09c-5.79.64-24.13.64-34.43.64l-19.95,72.08-18.34-4.83,18.66-68.54c-1.29,0-4.83-.32-7.4-.64l.96-14.48c2.57.32,7.4.32,10.3.32l25.42-91.7,18.34.32,21.24,86.56c1.93,0,6.44-1.93,10.62-3.54l9.01,16.73c-4.18,2.25-9.97,3.86-15.44,4.83l22.52,92.03-18.66,4.18-22.85-93.96ZM236.43,256.04l-11.91-49.23-14.16,50.84c8.04,0,26.39-1.61,26.06-1.61Z"/>
  <path class="st1" d="M374.02,168.52l18.34-5.15,38.61,140.61,38.94-160.56,18.66,4.83-47.94,196.28h-18.34l-48.27-176.01Z"/>
  <path class="st1" d="M472.56,355.7l3.67-18.65c2.5.69,5.05,1.06,7.28,1.38l20.78-143.62c-2.5-.69-4.68-1.33-7.23-1.7l4.31-18.56c14.19,3.03,26.42,8.37,36.74,15.72,35.27,25.91,43.01,71.25,29.42,115.77-12.49,39.16-44.38,57.3-86.1,51.27-2.87-.41-5.73-.83-8.87-1.61ZM548.88,300.09c4.16-13.05,6.05-26.11,5.62-38.85-.91-25.17-11.57-45.89-32.16-58.62l-19.76,136.62c27.99-2.45,40.81-21.41,46.3-39.14Z"/>
  <g>
    <path class="st1" d="M891.94,348.98l3.67-18.65c2.5.69,5.05,1.06,7.28,1.38l20.78-143.62c-2.5-.69-4.68-1.33-7.23-1.7l4.31-18.56c14.19,3.03,26.42,8.37,36.74,15.72,35.27,25.91,43.01,71.25,29.42,115.77-12.49,39.16-44.38,57.3-86.1,51.27-2.87-.41-5.73-.83-8.87-1.61ZM968.26,293.37c4.16-13.05,6.05-26.11,5.62-38.85-.91-25.17-11.57-45.89-32.16-58.62l-19.76,136.62c27.99-2.45,40.81-21.41,46.3-39.14Z"/>
    <path class="st1" d="M672.78,184.65c15.39-4.04,32.18-3.98,47.22-1.1,10.15,1.95,20.37,4.86,30.03,8.57,4.02,1.55,8.1,3.18,11.89,5.24l4.44-8.17s4.46-8.18,4.46-8.18c.25-.46-18.84-8.09-19.93-8.47-27.57-9.56-57.5-12.67-85.98-5.31-10.6,2.74-21.49,8.98-30,15.77-15.18,12.1-26.79,30.8-22.66,50.83,2.05,11.4,8.08,20.18,17.84,26.7,13.76,9.3,37.65,12.96,48.47,21.83,7.44,5.98,8.57,14.05,8.45,20.44.01,21.32-24.44,33.98-44.48,28.68l-4.71,18.03c7.7,2.12,15.93,1.91,24.26.41,24.35-4.38,43.23-21.45,43.43-46.94.11-15.29-4.76-26.51-14.86-34.87-17.53-14.35-55.43-14.54-59.95-37.91-2.52-11.5,3.61-22.12,11.86-29.68,8.52-7.81,19.01-12.94,30.23-15.89Z"/>
    <polygon class="st1" points="700.65 226.3 732.28 226.3 732.28 360.44 751.69 360.44 751.69 226.3 783.32 226.3 783.32 206.89 700.65 206.89 700.65 226.3"/>
    <path class="st1" d="M872.83,187.13l.31,74.1c.31,38.2-5.64,73.59-28.81,73.59-24.74,0-31-36.95-31.94-68.58-.63-18.79-1.25-69.72-1.25-70.34h-18.48c0,2.82.63,51.87.94,70.97,1.25,42.28,11.9,86.74,50.42,86.74h.31c37.89,0,47.6-44.78,47.6-92.38l-.31-74.1h-18.79Z"/>
    <rect class="st1" x="1005" y="199.42" width="18.48" height="160.96" transform="translate(-1.86 6.83) rotate(-.39)"/>
    <path class="st0" d="M1108.7,196.56c-31.28-1.59-49.99,33.52-51.47,68.88-1.84,36.28,11.08,72.05,40.2,72.9,27.55.77,45.14-36.9,46.48-69.45,1.15-35.06-10.19-71.07-35.21-72.34Z"/>
    <path class="st1" d="M1105.91,183.95c-39.12-1.99-66.1,37.94-67.46,82.43-1.62,43.59,14.99,85.13,54.7,87.15l.59.03c35.86,1.82,60.93-41.47,62.13-82.7,1.28-42.72-13.51-85.06-49.96-86.91ZM1138.37,270.26c-1.27,30.83-17.93,66.53-44.04,65.8-27.59-.81-39.83-34.7-38.09-69.07,1.4-33.5,19.13-66.76,48.77-65.26,23.7,1.2,34.45,35.32,33.36,68.54Z"/>
  </g>
</svg>