<?xml version="1.0" encoding="UTF-8"?>
<svg id="Layer_1" xmlns="http://www.w3.org/2000/svg" version="1.1" viewBox="0 0 1526.33 396.3">
  <!-- Generator: Adobe Illustrator 30.2.1, SVG Export Plug-In . SVG Version: 2.1.1 Build 1)  -->
  <defs>
    <style>
      .st0 {
        fill: #fff;
      }

      .st1 {
        fill: #fbb040;
      }
    </style>
  </defs>
  <path class="st1" d="M909.69,241.99l-1.69,2.55c-24.56,37.23-74.07,62.64-129.21,66.3-37.75,2.51-75.76-4.27-102.19-33.37-17.26-19-28.64-42.32-41.94-64.05,19.59-9.72,31.38-32.29,30.11-54.13-1.27-21.83-14.62-42.13-33.15-53.76-18.53-11.63-41.62-14.94-63.16-11.12l3.4,19.5c2.27-.22,4.53-.45,6.79-.68v172.8h20.72c-.02-21.17-.04-42.32-.05-63.48,5.34-.55,10.69-1.1,16.03-1.65,13.55,18.44,22.81,39.77,36.52,58.08,20.61,27.53,50.14,45.32,84.43,49.83,8.9,1.17,18.28,1.76,27.88,1.76,5.28,0,10.64-.18,15.95-.53,28.47-1.89,56.47-9.22,81-21.22,27-13.2,48.95-31.83,63.48-53.87l1.8-2.73-16.73-10.24h.01ZM599.37,202.18v-87.93c23.09,5.1,43.12,21.39,45.16,42.77,1.7,27.5-15.95,44.13-45.16,45.16Z"/>
  <path class="st1" d="M351.2,211.35c-6.45-56.01,32.25-113.39,88.61-118.82l2.04,19.69c-45.5,4.75-76.39,52.63-70.62,96.75,4.41,38.7,28.86,61.11,68.24,55l3.06,19.69c-51.94,7.13-84.87-21.72-91.33-72.32h0Z"/>
  <path class="st1" d="M524.67,202.52c-6.11.68-25.46.68-36.33.68l-21.05,76.05-19.35-5.1,19.69-72.32c-1.36,0-5.1-.34-7.81-.68l1.01-15.28c2.71.34,7.81.34,10.87.34l26.82-96.75,19.35.34,22.41,91.33c2.04,0,6.79-2.04,11.21-3.74l9.51,17.65c-4.41,2.37-10.52,4.07-16.29,5.1l23.76,97.1-19.69,4.41-24.11-99.14h0ZM520.26,184.53l-12.57-51.94-14.94,53.64c8.48,0,27.84-1.7,27.5-1.7h.01Z"/>
  <path class="st1" d="M665.43,92.19l19.35-5.43,40.74,148.36,41.09-169.4,19.69,5.1-50.58,207.09h-19.35l-50.93-185.71h-.01Z"/>
  <path class="st1" d="M769.4,289.68l3.87-19.68c2.64.73,5.33,1.12,7.68,1.46l21.92-151.53c-2.64-.73-4.94-1.4-7.63-1.79l4.55-19.58c14.97,3.2,27.88,8.83,38.76,16.59,37.21,27.34,45.38,75.17,31.04,122.15-13.18,41.32-46.82,60.46-90.84,54.09-3.03-.43-6.05-.88-9.36-1.7h.01ZM849.93,231c4.39-13.77,6.38-27.55,5.93-40.99-.96-26.56-12.21-48.42-33.93-61.85l-20.85,144.15c29.53-2.58,43.06-22.59,48.85-41.3h0Z"/>
  <g>
    <path class="st1" d="M1211.88,282.59l3.87-19.68c2.64.73,5.33,1.12,7.68,1.46l21.92-151.53c-2.64-.73-4.94-1.4-7.63-1.79l4.55-19.58c14.97,3.2,27.88,8.83,38.76,16.59,37.21,27.34,45.38,75.17,31.04,122.15-13.18,41.32-46.82,60.46-90.84,54.09-3.03-.43-6.05-.88-9.36-1.7h0ZM1292.41,223.91c4.39-13.77,6.38-27.55,5.93-40.99-.96-26.56-12.21-48.42-33.93-61.85l-20.85,144.15c29.53-2.58,43.06-22.59,48.85-41.3h0Z"/>
    <path class="st1" d="M980.65,109.2c16.24-4.26,33.95-4.2,49.82-1.16,10.71,2.06,21.49,5.13,31.68,9.04,4.24,1.64,8.55,3.36,12.54,5.53l4.68-8.62,4.71-8.63c.26-.49-19.88-8.54-21.03-8.94-29.09-10.09-60.67-13.37-90.72-5.6-11.18,2.89-22.67,9.47-31.65,16.64-16.02,12.77-28.27,32.5-23.91,53.63,2.16,12.03,8.53,21.29,18.82,28.17,14.52,9.81,39.72,13.67,51.14,23.03,7.85,6.31,9.04,14.82,8.92,21.57.01,22.49-25.79,35.85-46.93,30.26l-4.97,19.02c8.12,2.24,16.81,2.02,25.6.43,25.69-4.62,45.61-22.63,45.82-49.53.12-16.13-5.02-27.97-15.68-36.79-18.5-15.14-58.48-15.34-63.25-40-2.66-12.13,3.81-23.34,12.51-31.31,8.99-8.24,20.06-13.65,31.9-16.77v.02h0Z"/>
    <polygon class="st1" points="1010.06 153.15 1043.43 153.15 1043.43 294.68 1063.91 294.68 1063.91 153.15 1097.28 153.15 1097.28 132.67 1010.06 132.67 1010.06 153.15"/>
    <path class="st1" d="M1191.72,111.82l.33,78.18c.33,40.3-5.95,77.64-30.4,77.64-26.1,0-32.71-38.99-33.7-72.36-.66-19.83-1.32-73.56-1.32-74.21h-19.5c0,2.98.66,54.73.99,74.88,1.32,44.61,12.56,91.52,53.2,91.52h.33c39.98,0,50.22-47.25,50.22-97.47l-.33-78.18h-19.83.01Z"/>
    <rect class="st1" x="1331.2" y="124.67" width="19.5" height="169.83" transform="translate(-1.4 9.13) rotate(-.39)"/>
  </g>
  <path class="st1" d="M1437.64,108.47c-41.27-2.1-69.74,40.03-71.18,86.97-1.71,45.99,15.82,89.82,57.71,91.95l.62.03c37.84,1.92,64.29-43.75,65.55-87.26,1.35-45.07-14.25-89.75-52.71-91.7h.01ZM1471.89,199.53c-1.34,32.53-18.92,70.19-46.47,69.42-29.11-.85-42.02-36.61-40.19-72.87,1.48-35.35,20.18-70.44,51.46-68.85,25.01,1.27,36.35,37.27,35.2,72.32h0v-.02Z"/>
  <g>
    <g>
      <path class="st0" d="M102.13,236.8l-2.45-15.94-1.16,13.47c-8.81-5.39-17.53-9.77-27.35-12.73-.17-9.32.08-17.99-.91-27.07-1.8,8.62-2.18,16.98-3.18,25.84-5.07-1.07-9.42-2.13-14.46-2.56l14.18,6.2-.08,14.99c-.05,9.39.75,18.41,3.36,27.81l1.18-40.76c9.49,4.36,18.28,8.57,26.96,13.41l-.12,26.93c-6.83-3-13.54-4.37-20.83-4.44,7.06,2.73,14.07,5.34,21.05,8.79.53,11.01,1.08,21.28,2.93,31.63,1-7.93,1.26-14.9,1.58-22.26.1-2.36.06-4.29.79-6.66l12.48,8.29c-3.55-5.24-7.87-9.07-12.85-12.62l-.6-26.97c6.38,3.49,11.93,7.7,17.16,12.01-5.06-7.03-11.31-12.14-17.69-17.36Z"/>
      <path class="st0" d="M210.7,134.97c-.03-2.95-.1-5.52,1.17-7.98,1.59-3.06,5.08-4.06,8.02-2.81,2.16.92,3.89,2.42,5.7,3.94-.49-7.08-6.11-11.92-12.83-11.13-2.99.35-5.28,2.71-6.29,4.7-2.48,4.91-.17,10.55,4.23,13.28Z"/>
      <path class="st0" d="M272.17,104.19c-.47-1.68-.23-3.39.85-4.61,1.89-2.11,5.55-1.91,8.19.45.46.41.83.87,1.16,1.34-.66-4.64-4.83-8.12-9.83-7.92-2.04.08-3.61,1.6-3.93,3.58-.48,2.9,1,5.97,3.56,7.16Z"/>
      <path class="st0" d="M269.07,143.96l4.77,10.65c2.55-1.1,4.21-2.09,5.9-3.57l-3.12-13.44-7.55,6.36Z"/>
      <path class="st0" d="M254.21,146.69c2.92,3.85,5.43,7.45,9.24,10.11,1.86,1.3,4.97-.15,6.86-1.02l-3.93-10.68-12.17,1.59Z"/>
      <path class="st0" d="M272.2,136.11c6.77-4.46,9.16-11.82,6.26-19.04-4.47-11.13-18.18-14.69-28.08-10.96-6.35,2.39-11.18,8.11-13.15,14.48-1.75,5.66-.53,11.2,2.86,15.47,8.38,10.54,22.15,6.6,32.1.05ZM264.7,112.56c3.05,2.62-.88,12.8-4,16.07-4.96.78-16.1-4.66-15.49-9.28.74-5.53,17.16-8.8,19.49-6.8Z"/>
      <path class="st0" d="M322.19,217.71c-2.15-5.54-5.08-10.79-8.99-15.51,2.41,3.12,4.48,6.44,6.13,9.6,1.02,1.94,1.96,3.92,2.86,5.91Z"/>
      <path class="st0" d="M319.84,294.75s0,0,0,0c0,0,0,0-.01,0h.01Z"/>
      <path class="st0" d="M283.5,272.84c-4.2-8.15-6.68-16.58-8.96-25.6-9.11-9.73-16.79-6.93-30.03-7.99l27.98-17.21c.35-9.2,2.72-20.29,8.53-27.28,4.1-4.93,10.18-7.09,16.45-5,.75.25,1.49.56,2.22.9-4.23-2.54-9.05-4.7-14.55-6.37l-81.82,25.76c-9.79,14.4-12.45,31.7-15.65,48.16l-3.6,18.55c-.98,5.05-3.52,13.45-9.9,12.81-12.72-1.27-22.53-16.62-26.81-27.6-2.94-7.54-4.92-15.56-6.1-23.86-1.69,2.26-3.38,4.83-4.96,7.71.02.04.05.09.07.13-3.96,6.65-5.65,13.6-6.28,21.32-1.57,19.33,2.83,39.44,12.08,56.46,2.45,4.51,4.9,8.87,8.88,12.24,4.53,3.84,10.12,6.53,16.05,7.21,6.6.75,11.98-1.72,18.02-3.89,5.25-1.89,10.59-3.53,15.89-5.28,10.96-3.62,21.91-7.24,32.87-10.87,2.98-.99,5.96-1.97,8.94-2.96-3.01-6.86-3.24-14.87.07-22.02,7.59-16.34,30.91,1.16,39.43,8.76l12.44-4.08s.04.1.06.15l16.24-5.37c-2.07,0-4.19-.43-6.28-1.34-9.52-4.12-16.63-14.44-21.29-23.48ZM161.22,313.89c11.82-9.13,32.15-13.3,47.32-10.61-12.62,9.43-31.08,15.43-47.32,10.61ZM205.84,267.1c8.05-7.62,24.88-9.59,35.21-6.68-8.76,7.52-24.45,8.74-35.21,6.68ZM212.12,225.42c4.85-4.39,10.31-5.75,15.78-7.66,10.79-3,21.6-4.89,33.52-5-12.15,9.23-34.3,14.05-49.3,12.67Z"/>
      <path class="st0" d="M310.08,262.41c-2.35-2.51-4.1-5.62-4.64-10.18l3.86,4.05c.44.47,1.95.67,2.48.31,3.13-2.15.19-15.38.08-19.79,4.62,4.17,7.11,31.1-1.77,25.61Z"/>
      <path class="st0" d="M306.78,218.82c-3.41-2.45-7.42-2.18-10.49,1.23-.72-2.55.61-5.48,2.35-6.66,7.43-5.05,15.63,9.72,17.29,15.99-2.98-3.91-5.33-7.81-9.15-10.56Z"/>
      <path class="st0" d="M293.6,196.11c8.29-.11,18.21,11.63,21.33,16.66-6.02-4.92-16.35-16.35-24.94-10.79-5.56,3.6-7.03,8.6-9.29,13.33-.18-6.27,3.26-19.07,12.9-19.19Z"/>
      <path class="st0" d="M288.96,217.3c-1.55,15.1,2.18,29.73,10.49,41.89-4.49-4.21-7.51-8.86-10.42-14.06-4.66-8.97-4.48-18.81-.07-27.82Z"/>
      <path class="st0" d="M312.51,289.65c-14.83.64-24.79-26.69-27.38-35.65,5.98,9.08,13.26,22.43,22.81,28.14,13.13,7.85,14.25-26.21,13.45-25.84l.97-.44c.38,7.72,1.97,33.28-9.85,33.79Z"/>
    </g>
    <path class="st0" d="M263.46,156.79c-3.81-2.66-6.32-6.26-9.24-10.11l12.17-1.59,3.93,10.68c-1.88.88-5,2.32-6.86,1.02Z"/>
    <path class="st0" d="M273.84,154.62l-4.77-10.65,7.55-6.36,3.12,13.44c-1.69,1.49-3.35,2.47-5.9,3.57Z"/>
    <path class="st0" d="M268.61,97.03c.32-1.97,1.89-3.5,3.93-3.58,5-.2,9.17,3.28,9.83,7.92-.33-.47-.71-.93-1.16-1.34-2.63-2.36-6.3-2.56-8.19-.45-1.09,1.21-1.32,2.92-.85,4.61-2.56-1.19-4.04-4.26-3.56-7.16Z"/>
    <path class="st0" d="M206.47,121.69c1.01-1.99,3.3-4.35,6.29-4.7,6.72-.79,12.34,4.06,12.83,11.13-1.81-1.53-3.54-3.03-5.7-3.94-2.94-1.25-6.43-.25-8.02,2.81-1.27,2.45-1.2,5.02-1.17,7.98-4.39-2.73-6.71-8.37-4.23-13.28Z"/>
    <path class="st0" d="M278.46,117.07c-4.47-11.13-18.18-14.69-28.08-10.96-6.35,2.39-11.18,8.11-13.15,14.48-1.75,5.66-.53,11.2,2.86,15.47,8.38,10.54,22.15,6.6,32.1.05,6.77-4.46,9.16-11.82,6.26-19.04ZM260.69,128.63c-4.96.78-16.1-4.66-15.49-9.28.74-5.53,17.16-8.8,19.49-6.8,3.05,2.62-.88,12.8-4,16.07Z"/>
    <path class="st0" d="M103.26,269.12c4.98,3.55,9.3,7.38,12.85,12.62l-12.48-8.29c-.74,2.37-.69,4.3-.79,6.66-.32,7.36-.58,14.33-1.58,22.26-1.85-10.35-2.4-20.61-2.93-31.63-6.98-3.46-13.99-6.06-21.05-8.79,7.29.07,14.01,1.43,20.83,4.44l.12-26.93c-8.68-4.84-17.47-9.05-26.96-13.41l-1.18,40.76c-2.62-9.41-3.41-18.43-3.36-27.81l.08-14.99-14.18-6.2c5.05.43,9.4,1.48,14.46,2.56,1-8.86,1.38-17.22,3.18-25.84.99,9.09.74,17.75.91,27.07,9.82,2.96,18.54,7.34,27.35,12.73l1.16-13.47,2.45,15.94c6.38,5.22,12.63,10.33,17.69,17.36-5.24-4.31-10.78-8.52-17.16-12.01l.6,26.97Z"/>
    <g>
      <path class="st0" d="M274.75,55.88c1.19,0,2.41.15,3.63.47,7.07,1.86,12.49,9.59,11.66,16.89-.6,5.31-4.42,9.28-8.86,11.8,4.01,2.22,7.38,4.69,10.33,8.22,9.71,11.61,14.29,26.96,11.51,41.91-3.3,17.74-16.95,29.59-32.77,36.8,5.09,3.66,10.51,6.83,14.91,12.32l-81.82,25.76c-9.79,14.4-12.45,31.7-15.65,48.16l-3.6,18.55c-.94,4.86-3.33,12.84-9.22,12.84-.22,0-.45-.01-.68-.03-12.72-1.27-22.53-16.62-26.81-27.6-2.94-7.54-4.92-15.56-6.1-23.86-4.98-35.17,4.59-75.43,17.66-106.08-6.62-1.28-13.55-3.15-17.76-8.83-.8-1.08-1.46-2.23-1.98-3.44-4.97-11.49,2.57-27.51,14.96-30.39,1.65-.38,3.35-.57,5.05-.57,3.54,0,7.08.82,10.24,2.41,19.66-24.1,40.57-31.25,58.46-31.25,12.9,0,24.24,3.72,32.41,7.48.49-1.74,1.3-3.48,2.45-5.12,2.82-4.03,7.23-6.46,11.99-6.46M274.75,51.73h0c-6.02,0-11.78,3.08-15.39,8.23-.46.65-.88,1.33-1.26,2.02-9.97-4.04-20.33-6.16-30.2-6.16-22.31,0-42.38,10.22-59.67,30.38-2.88-1.01-5.94-1.54-9.03-1.54-2.03,0-4.04.23-5.99.68-6.93,1.61-12.97,6.63-16.58,13.77-3.68,7.29-4.15,15.63-1.26,22.31.65,1.51,1.48,2.95,2.45,4.26,3.87,5.23,9.46,7.76,15.37,9.32-8.08,20.12-21.91,62.32-16.05,103.7,1.26,8.89,3.39,17.23,6.34,24.79,5.09,13.05,16.08,28.8,30.26,30.22.36.04.73.05,1.09.05,8.83,0,12.12-10.15,13.3-16.2l3.6-18.55c.27-1.37.53-2.74.79-4.12,2.73-14.29,5.54-29.05,13.44-41.32l80.42-25.32,5.78-1.82-3.79-4.73c-3.11-3.89-6.6-6.66-10.08-9.15,16.07-8.94,25.97-21.49,28.78-36.62,2.95-15.86-1.57-32.38-12.41-45.33-1.83-2.18-3.84-4.08-6.21-5.83,3.25-3.14,5.22-6.93,5.69-11.06,1.07-9.37-5.54-18.96-14.73-21.37-1.54-.4-3.11-.61-4.68-.61h0Z"/>
      <path class="st0" d="M253.12,291.44c10,0,23.24,10.19,29.21,15.51l12.44-4.08s.04.1.06.15c6.54,14.37-9.58,28.42-22.96,31.87-2.28.59-4.61.92-6.93.92-3.19,0-6.35-.63-9.32-2.1-5.92-2.92-10.31-7.81-12.8-13.5-3.01-6.86-3.24-14.87.07-22.02,2.27-4.89,5.95-6.75,10.22-6.75M253.12,287.29h0c-6.37,0-11.21,3.16-13.99,9.15-3.68,7.93-3.72,17.2-.11,25.43,2.98,6.8,8.23,12.32,14.77,15.55,3.4,1.68,7.15,2.53,11.16,2.53,2.57,0,5.25-.35,7.96-1.05,8.76-2.26,20.42-9.36,25.33-19.63,2.85-5.97,2.99-12.16.4-17.9-.03-.09-.07-.17-.11-.25l-1.56-3.34-3.5,1.15-10.2,3.35c-5.86-4.95-19.1-14.98-30.15-14.99h0Z"/>
      <path class="st0" d="M63.6,183.4c9.5,0,19.59,3.68,27.43,8.51,19.29,11.86,34.94,34.06,45.27,53.93.02.04.05.09.07.13-3.96,6.65-5.65,13.6-6.28,21.32-1.78,21.79,4.47,47.3,18.03,65.91-.51-.05-1.01-.12-1.52-.19-14.85-1.83-28.85-6.94-41.95-14.32-25.5-14.38-46.37-36.01-59.58-62.09-8.88-17.52-15.44-43.92-4.26-61.37,5.5-8.58,13.88-11.82,22.78-11.82M63.6,179.25c-11.43,0-20.52,4.75-26.28,13.74-5.64,8.8-7.66,20.04-6.01,33.4,1.28,10.4,4.86,21.8,10.07,32.08,13.59,26.83,34.77,48.91,61.25,63.83,14.27,8.05,28.9,13.03,43.48,14.83l.45.06c.38.05.75.1,1.13.14l9.32,1-5.52-7.57c-12.42-17.04-19.03-41.23-17.25-63.13.65-7.97,2.41-13.99,5.71-19.54l1.18-1.98-1.06-2.05-.06-.12c-7.65-14.71-23.89-41.48-46.78-55.56-9.42-5.8-20.21-9.12-29.6-9.12h0Z"/>
    </g>
    <path class="st0" d="M311.43,299.61c-2.36,0-4.78-.5-7.16-1.53-10.34-4.47-17.84-15.75-22.31-24.43-4.06-7.89-6.55-15.93-8.99-25.51-6.23-6.45-11.65-6.52-19.76-6.63-2.54-.03-5.41-.07-8.56-.33l-6.33-.51,32.46-19.96c.34-6.15,1.92-18.95,8.96-27.41,2.6-3.12,5.89-5.23,9.52-6.1h0c3.02-.72,6.11-.57,9.19.46,12,4.01,20.11,17.44,23.04,23.03,9.67,18.45,13.78,38.93,11.88,59.22-.78,8.37-3.33,15.7-7.56,21.79-3.57,5.14-8.8,7.9-14.35,7.9ZM251.66,237.34c.54,0,1.07.02,1.6.02,8.66.12,15.5.21,23.1,8.33l.36.39.13.52c2.41,9.54,4.83,17.47,8.79,25.15,4.16,8.07,11.05,18.54,20.27,22.52,6.08,2.63,12.55.7,16.46-4.93,3.82-5.49,6.12-12.15,6.84-19.8,1.82-19.49-2.13-39.17-11.43-56.91-5.61-10.71-13.34-18.57-20.67-21.02-2.33-.78-4.66-.9-6.91-.36h0c-2.75.66-5.27,2.29-7.29,4.72-6.68,8.03-7.86,20.88-8.05,26.03l-.04,1.11-23.16,14.24ZM272.79,221.91h.01-.01Z"/>
  </g>
</svg>